ISO-10303-21;
HEADER;
FILE_DESCRIPTION (( 'STEP AP214' ),
    '1' );
FILE_NAME ('Dprix Pieter_05 01 2026.STEP',
    '2026-01-05T20:35:38',
    ( '' ),
    ( '' ),
    'SwSTEP 2.0',
    'SolidWorks 2012',
    '' );
FILE_SCHEMA (( 'AUTOMOTIVE_DESIGN' ));
ENDSEC;

DATA;
#1 = CARTESIAN_POINT ( 'NONE',  ( 817.7091532081918800, 262.9660232739011000, 247.4547181853988000 ) ) ;
#2 = CARTESIAN_POINT ( 'NONE',  ( 723.9457595137549800, 94.25492764789879600, 476.5719663754746900 ) ) ;
#3 = CARTESIAN_POINT ( 'NONE',  ( 729.9529356222027400, 100.9590884629503800, 466.1564837910007100 ) ) ;
#4 = CARTESIAN_POINT ( 'NONE',  ( 735.9601117306506200, 107.6632492780019600, 455.7410012065267900 ) ) ;
#5 = CARTESIAN_POINT ( 'NONE',  ( 741.9635910645706600, 114.3703618799598900, 445.3253846526301900 ) ) ;
#6 = CARTESIAN_POINT ( 'NONE',  ( 856.6508932448682600, 321.2405582269146900, 164.1229335597511700 ) ) ;
#7 = CARTESIAN_POINT ( 'NONE',  ( 711.9169946207587100, 80.85834127819167300, 497.4025523371769300 ) ) ;
#8 = CARTESIAN_POINT ( 'NONE',  ( 895.5807009335618400, 379.5213640948206300, 80.79033926953341900 ) ) ;
#9 = CARTESIAN_POINT ( 'NONE',  ( 717.9350328960980500, 87.55357649902335000, 486.9873044604025800 ) ) ;
#10 = CARTESIAN_POINT ( 'NONE',  ( 934.5089193861118700, 437.8029534089540700, -2.542399085356602800 ) ) ;
#11 = CARTESIAN_POINT ( 'NONE',  ( 771.9625552136955100, 147.9201457695084500, 393.2463186730867100 ) ) ;
#12 = CARTESIAN_POINT ( 'NONE',  ( 783.9541544514803500, 161.3461088729128800, 372.4141946130020500 ) ) ;
#13 = CARTESIAN_POINT ( 'NONE',  ( 759.9678198949591200, 134.4964892694017600, 414.0782032873424900 ) ) ;
#14 = CARTESIAN_POINT ( 'NONE',  ( 831.9079550715757700, 215.0592978429528400, 289.0847822041452000 ) ) ;
#15 = CARTESIAN_POINT ( 'NONE',  ( 807.9373529270501400, 188.1980350797216800, 330.7499464928328600 ) ) ;
#16 = CARTESIAN_POINT ( 'NONE',  ( 747.9650006747001500, 121.0790710097738400, 434.9096575308676100 ) ) ;
#17 = CARTESIAN_POINT ( 'NONE',  ( 903.8106927550032900, 295.6494166360506000, 164.0883775909788100 ) ) ;
#18 = CARTESIAN_POINT ( 'NONE',  ( 855.8755342993848700, 241.9226707739854300, 247.4193139997563500 ) ) ;
#19 = CARTESIAN_POINT ( 'NONE',  ( 951.7321165010822600, 349.3859659506991300, 80.75619905060634100 ) ) ;
#20 = CARTESIAN_POINT ( 'NONE',  ( 999.6516725128315100, 403.1237596500416800, -2.576206015748582400 ) ) ;
#21 = CARTESIAN_POINT ( 'NONE',  ( 683.5488568282268000, 232.8643254366315600, 330.8498790791454700 ) ) ;
#22 = CARTESIAN_POINT ( 'NONE',  ( 688.5830424554637800, 265.8643254366315900, 289.1832124124787800 ) ) ;
#23 = CARTESIAN_POINT ( 'NONE',  ( 693.6164619220459100, 298.8643254366315900, 247.5165457458121500 ) ) ;
#24 = CARTESIAN_POINT ( 'NONE',  ( 703.6833008552105200, 364.8643254366315900, 164.1832124124788100 ) ) ;
#25 = CARTESIAN_POINT ( 'NONE',  ( 713.7466225837210900, 430.8643254366316500, 80.84987907914546700 ) ) ;
#26 = CARTESIAN_POINT ( 'NONE',  ( 723.8094794221527800, 496.8643254366317000, -2.483454254187855300 ) ) ;
#27 = CARTESIAN_POINT ( 'NONE',  ( 676.4770267520568700, 98.22081135488406300, 497.5006788521766900 ) ) ;
#28 = CARTESIAN_POINT ( 'NONE',  ( 681.5026090422534300, 114.3183694931314700, 476.6678135665844100 ) ) ;
#29 = CARTESIAN_POINT ( 'NONE',  ( 678.9918301001523600, 106.2691202177648900, 487.0842602224101400 ) ) ;
#30 = CARTESIAN_POINT ( 'NONE',  ( 703.4035158439486400, 123.8672335998986400, 455.8076454706650200 ) ) ;
#31 = CARTESIAN_POINT ( 'NONE',  ( 762.4067956697996400, 246.5301515430305100, 289.1452112387794400 ) ) ;
#32 = CARTESIAN_POINT ( 'NONE',  ( 798.2382831898537500, 233.8287557973943400, 289.1206104982225600 ) ) ;
#33 = CARTESIAN_POINT ( 'NONE',  ( 701.5523359551305000, 178.7204684261507200, 393.3357007740295900 ) ) ;
#34 = CARTESIAN_POINT ( 'NONE',  ( 706.5582150741960300, 194.8224137183066200, 372.5025521729923500 ) ) ;
#35 = CARTESIAN_POINT ( 'NONE',  ( 696.5448652096245000, 162.6188558589850600, 414.1688116309628600 ) ) ;
#36 = CARTESIAN_POINT ( 'NONE',  ( 747.6673895018159300, 215.8595673567453700, 330.8112805693855900 ) ) ;
#37 = CARTESIAN_POINT ( 'NONE',  ( 684.0115062247788300, 122.3680377672691000, 466.2513399616905200 ) ) ;
#38 = CARTESIAN_POINT ( 'NONE',  ( 686.5204034073041200, 130.4177060414067200, 455.8348663567965700 ) ) ;
#39 = CARTESIAN_POINT ( 'NONE',  ( 777.1441518043883400, 277.2015558289205000, 247.4790209738768600 ) ) ;
#40 = CARTESIAN_POINT ( 'NONE',  ( 716.5699733123269700, 227.0263043026184000, 330.8362549709178800 ) ) ;
#41 = CARTESIAN_POINT ( 'NONE',  ( 707.0959601911181400, 131.5316182002630100, 445.3914111374113500 ) ) ;
#42 = CARTESIAN_POINT ( 'NONE',  ( 688.6126714280490000, 93.21923504105203100, 497.4721587841440900 ) ) ;
#43 = CARTESIAN_POINT ( 'NONE',  ( 692.3156808801868500, 100.8787878406742100, 487.0561020729905400 ) ) ;
#44 = CARTESIAN_POINT ( 'NONE',  ( 696.0133179034209000, 108.5408490170688200, 476.6399928599809600 ) ) ;
#45 = CARTESIAN_POINT ( 'NONE',  ( 806.6188640735657600, 338.5443644007005400, 164.1466404440716400 ) ) ;
#46 = CARTESIAN_POINT ( 'NONE',  ( 700.7483161040412400, 88.21765872722001200, 497.4436387161114800 ) ) ;
#47 = CARTESIAN_POINT ( 'NONE',  ( 705.6395316602212200, 95.48845546358352000, 487.0279439235709400 ) ) ;
#48 = CARTESIAN_POINT ( 'NONE',  ( 710.5240267645883700, 102.7633285410061900, 476.6121721533775100 ) ) ;
#49 = CARTESIAN_POINT ( 'NONE',  ( 715.4053275225908200, 110.0400448496983800, 466.1962983689555200 ) ) ;
#50 = CARTESIAN_POINT ( 'NONE',  ( 691.5331743304390100, 146.5181632844953300, 435.0018484977776400 ) ) ;
#51 = CARTESIAN_POINT ( 'NONE',  ( 689.0273288908463200, 138.4678169972504800, 445.4183669311849500 ) ) ;
#52 = CARTESIAN_POINT ( 'NONE',  ( 710.7869419301806600, 139.1966407694578700, 434.9751294410251000 ) ) ;
#53 = CARTESIAN_POINT ( 'NONE',  ( 732.9192329680352000, 185.1926721272518300, 372.4769724337398900 ) ) ;
#54 = CARTESIAN_POINT ( 'NONE',  ( 726.5753081497455200, 259.2315472886666600, 289.1698119793363200 ) ) ;
#55 = CARTESIAN_POINT ( 'NONE',  ( 720.2866282805931600, 117.3167611583905600, 455.7804245845335300 ) ) ;
#56 = CARTESIAN_POINT ( 'NONE',  ( 725.5451547011447200, 169.8592245125050500, 393.3098183659170700 ) ) ;
#57 = CARTESIAN_POINT ( 'NONE',  ( 725.1645914913898400, 124.5954194032755900, 445.3644553436377600 ) ) ;
#58 = CARTESIAN_POINT ( 'NONE',  ( 865.5482463074901000, 461.2381295382606400, -2.519207065038320700 ) ) ;
#59 = CARTESIAN_POINT ( 'NONE',  ( 718.1689054083058200, 154.5266859078475600, 414.1425660482525500 ) ) ;
#60 = CARTESIAN_POINT ( 'NONE',  ( 730.0407095299223100, 131.8751182544204100, 434.9484103842726200 ) ) ;
#61 = CARTESIAN_POINT ( 'NONE',  ( 739.7929456069870200, 146.4345159567101000, 414.1163204655422300 ) ) ;
#62 = CARTESIAN_POINT ( 'NONE',  ( 759.2802508618743800, 175.5629305361970300, 372.4513926944874800 ) ) ;
#63 = CARTESIAN_POINT ( 'NONE',  ( 776.5876551809268400, 420.2606516178481100, 80.83718240885627900 ) ) ;
#64 = CARTESIAN_POINT ( 'NONE',  ( 836.0841780572443400, 399.8910078563343400, 80.81376083919485600 ) ) ;
#65 = CARTESIAN_POINT ( 'NONE',  ( 736.5791504005846900, 291.4370883839399700, 247.5033237623549400 ) ) ;
#66 = CARTESIAN_POINT ( 'NONE',  ( 778.7648056913047900, 204.6928304108723800, 330.7863061678532400 ) ) ;
#67 = CARTESIAN_POINT ( 'NONE',  ( 699.7084168736847700, 116.2040413084837400, 466.2238191653229900 ) ) ;
#68 = CARTESIAN_POINT ( 'NONE',  ( 749.5379734471589500, 160.9979805988593600, 393.2839359578045400 ) ) ;
#69 = CARTESIAN_POINT ( 'NONE',  ( 756.5868349022632600, 355.8481705744864600, 164.1703473283920700 ) ) ;
#70 = CARTESIAN_POINT ( 'NONE',  ( 796.5875732288682200, 484.6733056675672100, -2.496015044720038200 ) ) ;
#71 = CARTESIAN_POINT ( 'NONE',  ( 635.3589870164571500, 109.1143254366314700, 487.0998790791454700 ) ) ;
#72 = CARTESIAN_POINT ( 'NONE',  ( 634.0956313404287800, 117.3643254366314700, 476.6832124124788400 ) ) ;
#73 = CARTESIAN_POINT ( 'NONE',  ( 632.8332319894759600, 125.6143254366314700, 466.2665457458121500 ) ) ;
#74 = CARTESIAN_POINT ( 'NONE',  ( 667.1667680105239200, 125.6143254366314700, 466.2665457458121500 ) ) ;
#75 = CARTESIAN_POINT ( 'NONE',  ( 650.0000000000001100, 166.8643254366315000, 414.1832124124788400 ) ) ;
#76 = CARTESIAN_POINT ( 'NONE',  ( 629.0485866578818600, 150.3643254366315000, 435.0165457458121500 ) ) ;
#77 = CARTESIAN_POINT ( 'NONE',  ( 626.5268906646837200, 166.8643254366315000, 414.1832124124788400 ) ) ;
#78 = CARTESIAN_POINT ( 'NONE',  ( 611.4169575445363300, 265.8643254366315900, 289.1832124124787800 ) ) ;
#79 = CARTESIAN_POINT ( 'NONE',  ( 606.3835380779540900, 298.8643254366315900, 247.5165457458121500 ) ) ;
#80 = CARTESIAN_POINT ( 'NONE',  ( 596.3166991447896000, 364.8643254366315900, 164.1832124124788100 ) ) ;
#81 = CARTESIAN_POINT ( 'NONE',  ( 650.0000000000000000, 100.8643254366314700, 497.5165457458121500 ) ) ;
#82 = CARTESIAN_POINT ( 'NONE',  ( 650.0000000000000000, 364.8643254366315900, 164.1832124124788100 ) ) ;
#83 = CARTESIAN_POINT ( 'NONE',  ( 616.4511431717732000, 232.8643254366315600, 330.8498790791454700 ) ) ;
#84 = CARTESIAN_POINT ( 'NONE',  ( 649.9999999999998900, 125.6143254366314700, 466.2665457458121500 ) ) ;
#85 = CARTESIAN_POINT ( 'NONE',  ( 665.9043686595709900, 117.3643254366314700, 476.6832124124788400 ) ) ;
#86 = CARTESIAN_POINT ( 'NONE',  ( 668.4291673614767400, 133.8643254366314700, 455.8498790791454700 ) ) ;
#87 = CARTESIAN_POINT ( 'NONE',  ( 669.6905653455193000, 142.1143254366315000, 445.4332124124788400 ) ) ;
#88 = CARTESIAN_POINT ( 'NONE',  ( 650.0000000000000000, 199.8643254366315300, 372.5165457458121500 ) ) ;
#89 = CARTESIAN_POINT ( 'NONE',  ( 670.9514133421183700, 150.3643254366315000, 435.0165457458121500 ) ) ;
#90 = CARTESIAN_POINT ( 'NONE',  ( 673.4731093353166200, 166.8643254366315000, 414.1832124124788400 ) ) ;
#91 = CARTESIAN_POINT ( 'NONE',  ( 675.9926563782052000, 183.3643254366315000, 393.3498790791454700 ) ) ;
#92 = CARTESIAN_POINT ( 'NONE',  ( 650.0000000000001100, 150.3643254366315000, 435.0165457458121500 ) ) ;
#93 = CARTESIAN_POINT ( 'NONE',  ( 649.9999999999998900, 117.3643254366314700, 476.6832124124788400 ) ) ;
#94 = CARTESIAN_POINT ( 'NONE',  ( 650.0000000000000000, 298.8643254366315900, 247.5165457458121500 ) ) ;
#95 = CARTESIAN_POINT ( 'NONE',  ( 630.3094346544809200, 142.1143254366315000, 445.4332124124788400 ) ) ;
#96 = CARTESIAN_POINT ( 'NONE',  ( 650.0000000000001100, 142.1143254366315000, 445.4332124124788400 ) ) ;
#97 = CARTESIAN_POINT ( 'NONE',  ( 621.4886101384543100, 199.8643254366315300, 372.5165457458121500 ) ) ;
#98 = CARTESIAN_POINT ( 'NONE',  ( 576.1905205778472200, 496.8643254366317000, -2.483454254187855300 ) ) ;
#99 = CARTESIAN_POINT ( 'NONE',  ( 650.0000000000000000, 183.3643254366315000, 393.3498790791454700 ) ) ;
#100 = CARTESIAN_POINT ( 'NONE',  ( 624.0073436217949200, 183.3643254366315000, 393.3498790791454700 ) ) ;
#101 = CARTESIAN_POINT ( 'NONE',  ( 631.5708326385231400, 133.8643254366314700, 455.8498790791454700 ) ) ;
#102 = CARTESIAN_POINT ( 'NONE',  ( 586.2533774162789100, 430.8643254366316500, 80.84987907914546700 ) ) ;
#103 = CARTESIAN_POINT ( 'NONE',  ( 650.0000000000000000, 109.1143254366314700, 487.0998790791454700 ) ) ;
#104 = CARTESIAN_POINT ( 'NONE',  ( 649.9999999999998900, 133.8643254366314700, 455.8498790791454700 ) ) ;
#105 = CARTESIAN_POINT ( 'NONE',  ( 650.0000000000000000, 232.8643254366315600, 330.8498790791454700 ) ) ;
#106 = CARTESIAN_POINT ( 'NONE',  ( 650.0000000000000000, 265.8643254366315900, 289.1832124124787800 ) ) ;
#107 = CARTESIAN_POINT ( 'NONE',  ( 650.0000000000000000, 430.8643254366316500, 80.84987907914546700 ) ) ;
#108 = CARTESIAN_POINT ( 'NONE',  ( 663.3756205427398500, 100.8643254366314700, 497.5165457458121500 ) ) ;
#109 = CARTESIAN_POINT ( 'NONE',  ( 650.0000000000000000, 496.8643254366317000, -2.483454254187855300 ) ) ;
#110 = CARTESIAN_POINT ( 'NONE',  ( 664.6410129835429600, 109.1143254366314700, 487.0998790791454700 ) ) ;
#111 = CARTESIAN_POINT ( 'NONE',  ( 546.0000000000000000, 8.326672684688674100E-014, 500.0000000000000000 ) ) ;
#112 = CARTESIAN_POINT ( 'NONE',  ( 1300.000000000000200, 2.498001805406602200E-013, 0.0000000000000000000 ) ) ;
#113 = CARTESIAN_POINT ( 'NONE',  ( 2.659059053280306500, -0.7056733641397755500, -2.903692486182216600 ) ) ;
#114 = CARTESIAN_POINT ( 'NONE',  ( 1297.340940946719900, -0.7056733641395488400, -2.903692486182217100 ) ) ;
#115 = CARTESIAN_POINT ( 'NONE',  ( 548.7014302321223300, 7.239289996354215900E-014, 497.0500381865224400 ) ) ;
#116 = CARTESIAN_POINT ( 'NONE',  ( -1.110223024625156500E-013, 2.775557561562891400E-014, 0.0000000000000000000 ) ) ;
#117 = CARTESIAN_POINT ( 'NONE',  ( 556.9576633707275700, 54.03587385752955900, 500.0000000000000000 ) ) ;
#118 = CARTESIAN_POINT ( 'NONE',  ( 595.9641261424704900, 93.04233662927241300, 500.0000000000000000 ) ) ;
#119 = CARTESIAN_POINT ( 'NONE',  ( 622.4182656640000500, 103.9999999999999700, 500.0000000000000000 ) ) ;
#120 = CARTESIAN_POINT ( 'NONE',  ( 704.0358738575295100, 93.04233662927238400, 500.0000000000000000 ) ) ;
#121 = CARTESIAN_POINT ( 'NONE',  ( 754.0000000000000000, 4.607859233063393800E-014, 500.0000000000000000 ) ) ;
#122 = CARTESIAN_POINT ( 'NONE',  ( 743.0423366292724300, 54.03587385752953100, 500.0000000000000000 ) ) ;
#123 = CARTESIAN_POINT ( 'NONE',  ( 754.0000000000000000, 27.58173433600003600, 500.0000000000000000 ) ) ;
#124 = CARTESIAN_POINT ( 'NONE',  ( 754.0000000000000000, 4.607859233063393800E-014, 500.0000000000000000 ) ) ;
#125 = CARTESIAN_POINT ( 'NONE',  ( 546.0000000000001100, 27.58173433600007100, 500.0000000000000000 ) ) ;
#126 = CARTESIAN_POINT ( 'NONE',  ( 1300.000000000000200, 2.498001805406602200E-013, 0.0000000000000000000 ) ) ;
#127 = CARTESIAN_POINT ( 'NONE',  ( 754.0000000000000000, 4.607859233063393800E-014, 500.0000000000000000 ) ) ;
#128 = CARTESIAN_POINT ( 'NONE',  ( -1.110223024625156500E-013, 2.775557561562891400E-014, 0.0000000000000000000 ) ) ;
#129 = CARTESIAN_POINT ( 'NONE',  ( 677.5817343359999500, 103.9999999999999700, 500.0000000000000000 ) ) ;
#130 = CARTESIAN_POINT ( 'NONE',  ( 2.659059053280306500, -0.7056733641397755500, -2.903692486182216600 ) ) ;
#131 = CARTESIAN_POINT ( 'NONE',  ( 751.2985697678776700, 4.607859233063393800E-014, 497.0500381865224400 ) ) ;
#132 = CARTESIAN_POINT ( 'NONE',  ( 546.0000000000000000, 8.326672684688674100E-014, 500.0000000000000000 ) ) ;
#133 = CARTESIAN_POINT ( 'NONE',  ( 751.2985697678776700, 4.607859233063393800E-014, 497.0500381865224400 ) ) ;
#134 = CARTESIAN_POINT ( 'NONE',  ( 865.0630614883941700, -0.4153724890207509700, 392.8991964786597500 ) ) ;
#135 = CARTESIAN_POINT ( 'NONE',  ( 588.0830053792412900, 80.85834127819168800, 497.4025523371769300 ) ) ;
#136 = CARTESIAN_POINT ( 'NONE',  ( 636.6243794572602600, 100.8643254366314700, 497.5165457458121500 ) ) ;
#137 = CARTESIAN_POINT ( 'NONE',  ( 663.3756205427398500, 100.8643254366314700, 497.5165457458121500 ) ) ;
#138 = CARTESIAN_POINT ( 'NONE',  ( 933.3214103427944800, -0.5241600964540644700, 330.4083134276648400 ) ) ;
#139 = CARTESIAN_POINT ( 'NONE',  ( 1259.352794402839700, 142.0316909840507300, -2.804932408048325800 ) ) ;
#140 = CARTESIAN_POINT ( 'NONE',  ( 124.7446691947976100, 268.1787592800419000, -2.699627499369960500 ) ) ;
#141 = CARTESIAN_POINT ( 'NONE',  ( 623.5229732479431300, 98.22081135488409100, 497.5006788521766900 ) ) ;
#142 = CARTESIAN_POINT ( 'NONE',  ( 2.659059053280306500, -0.7056733641397755500, -2.903692486182216600 ) ) ;
#143 = CARTESIAN_POINT ( 'NONE',  ( 1175.255330805202400, 268.1787592800420200, -2.699627499369960000 ) ) ;
#144 = CARTESIAN_POINT ( 'NONE',  ( 1177.584630355487400, 270.1133683004830500, 0.0000000000000000000 ) ) ;
#145 = CARTESIAN_POINT ( 'NONE',  ( 676.4770267520568700, 98.22081135488406300, 497.5006788521766900 ) ) ;
#146 = CARTESIAN_POINT ( 'NONE',  ( 2.659059053280306500, -0.7056733641397755500, -2.903692486182216600 ) ) ;
#147 = CARTESIAN_POINT ( 'NONE',  ( 796.8029985299314100, -0.2383842995501799800, 455.3882077280184100 ) ) ;
#148 = CARTESIAN_POINT ( 'NONE',  ( 748.5258910535798100, 26.56925378708335800, 497.1484858873636800 ) ) ;
#149 = CARTESIAN_POINT ( 'NONE',  ( 751.2985697678776700, 4.607859233063393800E-014, 497.0500381865224400 ) ) ;
#150 = CARTESIAN_POINT ( 'NONE',  ( 1115.334927667907600, -0.6571016110505927300, 163.7564076800217100 ) ) ;
#151 = CARTESIAN_POINT ( 'NONE',  ( 546.0000000000000000, 8.326672684688674100E-014, 500.0000000000000000 ) ) ;
#152 = CARTESIAN_POINT ( 'NONE',  ( 978.8254038587554100, -0.5632820566169968200, 288.7460076804272300 ) ) ;
#153 = CARTESIAN_POINT ( 'NONE',  ( 1206.338286729634500, -0.6837478037416095900, 80.42674296315097100 ) ) ;
#154 = CARTESIAN_POINT ( 'NONE',  ( 1297.340940946719900, -0.7056733641395488400, -2.903692486182217100 ) ) ;
#155 = CARTESIAN_POINT ( 'NONE',  ( 93.66171327036504100, -0.6837478037417935600, 80.42674296315058800 ) ) ;
#156 = CARTESIAN_POINT ( 'NONE',  ( 561.6391984033309700, 50.84174893570205000, 497.2532599151315400 ) ) ;
#157 = CARTESIAN_POINT ( 'NONE',  ( 1300.000000000000200, 2.498001805406602200E-013, 0.0000000000000000000 ) ) ;
#158 = CARTESIAN_POINT ( 'NONE',  ( 551.4741089464201900, 26.56925378708341500, 497.1484858873636800 ) ) ;
#159 = CARTESIAN_POINT ( 'NONE',  ( 1261.957632148625900, 143.3480527732959000, 0.0000000000000000000 ) ) ;
#160 = CARTESIAN_POINT ( 'NONE',  ( 942.4763429873493100, 450.9658970452046000, 0.0000000000000000000 ) ) ;
#161 = CARTESIAN_POINT ( 'NONE',  ( 798.3101007539096400, 500.0000000000002300, 0.0000000000000000000 ) ) ;
#162 = CARTESIAN_POINT ( 'NONE',  ( 1297.340940946719900, -0.7056733641395488400, -2.903692486182217100 ) ) ;
#163 = CARTESIAN_POINT ( 'NONE',  ( 501.6898992460904200, 500.0000000000002300, 0.0000000000000000000 ) ) ;
#164 = CARTESIAN_POINT ( 'NONE',  ( 357.5236570126507400, 450.9658970452046000, 0.0000000000000000000 ) ) ;
#165 = CARTESIAN_POINT ( 'NONE',  ( 700.7483161040412400, 88.21765872722001200, 497.4436387161114800 ) ) ;
#166 = CARTESIAN_POINT ( 'NONE',  ( 122.4153696445128200, 270.1133683004829300, 0.0000000000000000000 ) ) ;
#167 = CARTESIAN_POINT ( 'NONE',  ( -1.110223024625156500E-013, 2.775557561562891400E-014, 0.0000000000000000000 ) ) ;
#168 = CARTESIAN_POINT ( 'NONE',  ( 599.2516838959588800, 88.21765872722004100, 497.4436387161114800 ) ) ;
#169 = CARTESIAN_POINT ( 'NONE',  ( 40.64720559716067800, 142.0316909840503000, -2.804932408048325300 ) ) ;
#170 = CARTESIAN_POINT ( 'NONE',  ( 548.7014302321223300, 7.239289996354215900E-014, 497.0500381865224400 ) ) ;
#171 = CARTESIAN_POINT ( 'NONE',  ( 751.2473837984746300, 13.43310960287323900, 497.0969117848768500 ) ) ;
#172 = CARTESIAN_POINT ( 'NONE',  ( -1.110223024625156500E-013, 2.775557561562891400E-014, 0.0000000000000000000 ) ) ;
#173 = CARTESIAN_POINT ( 'NONE',  ( 358.8828802512922500, 448.1054264400415300, -2.535065521208122800 ) ) ;
#174 = CARTESIAN_POINT ( 'NONE',  ( 842.3098279235237000, -0.3707968433323080600, 413.7289987591544200 ) ) ;
#175 = CARTESIAN_POINT ( 'NONE',  ( 502.3810411556945000, 496.8643254366317000, -2.483454254187855300 ) ) ;
#176 = CARTESIAN_POINT ( 'NONE',  ( 38.04236785137449300, 143.3480527732955600, 0.0000000000000000000 ) ) ;
#177 = CARTESIAN_POINT ( 'NONE',  ( 1300.000000000000200, 2.498001805406602200E-013, 0.0000000000000000000 ) ) ;
#178 = CARTESIAN_POINT ( 'NONE',  ( 941.1171197487078600, 448.1054264400415300, -2.535065521208123200 ) ) ;
#179 = CARTESIAN_POINT ( 'NONE',  ( 548.7526162015253700, 13.43310960287323200, 497.0969117848768500 ) ) ;
#180 = CARTESIAN_POINT ( 'NONE',  ( 738.3608015966690300, 50.84174893570203600, 497.2532599151315400 ) ) ;
#181 = CARTESIAN_POINT ( 'NONE',  ( 754.0000000000000000, 4.607859233063393800E-014, 500.0000000000000000 ) ) ;
#182 = CARTESIAN_POINT ( 'NONE',  ( 774.0485590612215700, -0.1552488097708262200, 476.2167146578192400 ) ) ;
#183 = CARTESIAN_POINT ( 'NONE',  ( 711.9169946207587100, 80.85834127819167300, 497.4025523371769300 ) ) ;
#184 = CARTESIAN_POINT ( 'NONE',  ( 569.0817750298022000, 61.97687831276485300, 497.3065066769921100 ) ) ;
#185 = CARTESIAN_POINT ( 'NONE',  ( 797.6189588443055500, 496.8643254366317000, -2.483454254187855300 ) ) ;
#186 = CARTESIAN_POINT ( 'NONE',  ( 1297.340940946719900, -0.7056733641395488400, -2.903692486182217100 ) ) ;
#187 = CARTESIAN_POINT ( 'NONE',  ( 730.9182249701979100, 61.97687831276483900, 497.3065066769921100 ) ) ;
#188 = CARTESIAN_POINT ( 'NONE',  ( 751.2985697678776700, 4.607859233063393800E-014, 497.0500381865224400 ) ) ;
#189 = CARTESIAN_POINT ( 'NONE',  ( 455.0000000000000000, 7.401486830834376500E-014, 416.6666666666666900 ) ) ;
#190 = CARTESIAN_POINT ( 'NONE',  ( 548.7014302321223300, 7.239289996354215900E-014, 497.0500381865224400 ) ) ;
#191 = SURFACE_SIDE_STYLE ('',( #500 ) ) ;
#192 = CARTESIAN_POINT ( 'NONE',  ( 500.5000000000000600, 7.864079757761525900E-014, 458.3333333333333100 ) ) ;
#193 = CARTESIAN_POINT ( 'NONE',  ( 525.9514409387785500, -0.1552488097708087400, 476.2167146578193000 ) ) ;
#194 = CARTESIAN_POINT ( 'NONE',  ( 523.2500000000002300, 8.095376221225100600E-014, 479.1666666666668000 ) ) ;
#195 = CARTESIAN_POINT ( 'NONE',  ( 503.1970014700686400, -0.2383842995501679300, 455.3882077280184100 ) ) ;
#196 =( NAMED_UNIT ( * ) PLANE_ANGLE_UNIT ( ) SI_UNIT ( $, .RADIAN. ) );
#197 = CARTESIAN_POINT ( 'NONE',  ( 40.64720559716067800, 142.0316909840503000, -2.804932408048325300 ) ) ;
#198 = CARTESIAN_POINT ( 'NONE',  ( 124.7446691947976100, 268.1787592800419000, -2.699627499369960500 ) ) ;
#199 = CARTESIAN_POINT ( 'NONE',  ( 941.1171197487078600, 448.1054264400415300, -2.535065521208123200 ) ) ;
#200 = CARTESIAN_POINT ( 'NONE',  ( 1175.255330805202400, 268.1787592800420200, -2.699627499369960000 ) ) ;
#201 = CARTESIAN_POINT ( 'NONE',  ( 1259.352794402839700, 142.0316909840507300, -2.804932408048325800 ) ) ;
#202 = CARTESIAN_POINT ( 'NONE',  ( 798.3101007539096400, 500.0000000000002300, 0.0000000000000000000 ) ) ;
#203 = CARTESIAN_POINT ( 'NONE',  ( 1297.340940946719900, -0.7056733641395488400, -2.903692486182217100 ) ) ;
#204 =( LENGTH_UNIT ( ) NAMED_UNIT ( * ) SI_UNIT ( .MILLI., .METRE. ) );
#205 = CARTESIAN_POINT ( 'NONE',  ( -1.110223024625156500E-013, 2.775557561562891400E-014, 0.0000000000000000000 ) ) ;
#206 = CARTESIAN_POINT ( 'NONE',  ( 38.04236785137450000, 143.3480527732955600, 0.0000000000000000000 ) ) ;
#207 = CARTESIAN_POINT ( 'NONE',  ( 122.4153696445128400, 270.1133683004829300, 0.0000000000000000000 ) ) ;
#208 = CARTESIAN_POINT ( 'NONE',  ( 548.7014302321223300, 7.239289996354215900E-014, 497.0500381865224400 ) ) ;
#209 = CARTESIAN_POINT ( 'NONE',  ( 678.5113898615456900, 199.8643254366315300, 372.5165457458121500 ) ) ;
#210 = CARTESIAN_POINT ( 'NONE',  ( 797.6189588443055500, 496.8643254366317000, -2.483454254187855300 ) ) ;
#211 =( NAMED_UNIT ( * ) SI_UNIT ( $, .STERADIAN. ) SOLID_ANGLE_UNIT ( ) );
#212 = CARTESIAN_POINT ( 'NONE',  ( 942.4763429873493100, 450.9658970452046000, 0.0000000000000000000 ) ) ;
#213 = CARTESIAN_POINT ( 'NONE',  ( 434.9369385116058300, -0.4153724890207795600, 392.8991964786597500 ) ) ;
#214 = CARTESIAN_POINT ( 'NONE',  ( 457.6901720764764100, -0.3707968433323178300, 413.7289987591544200 ) ) ;
#215 = CARTESIAN_POINT ( 'NONE',  ( 366.6785896572054600, -0.5241600964541227600, 330.4083134276648400 ) ) ;
#216 = FILL_AREA_STYLE ('',( #220 ) ) ;
#217 = CARTESIAN_POINT ( 'NONE',  ( 321.1745961412448200, -0.5632820566170767500, 288.7460076804272800 ) ) ;
#218 = CARTESIAN_POINT ( 'NONE',  ( 546.0000000000000000, 8.326672684688674100E-014, 500.0000000000000000 ) ) ;
#219 = CARTESIAN_POINT ( 'NONE',  ( 184.6650723320923900, -0.6571016110507371700, 163.7564076800216500 ) ) ;
#220 = FILL_AREA_STYLE_COLOUR ( '', #512 ) ;
#221 = SURFACE_STYLE_USAGE ( .BOTH. , #191 ) ;
#222 = CARTESIAN_POINT ( 'NONE',  ( -1.110223024625156500E-013, 2.775557561562891400E-014, 0.0000000000000000000 ) ) ;
#223 = CARTESIAN_POINT ( 'NONE',  ( 1177.584630355487400, 270.1133683004830500, 0.0000000000000000000 ) ) ;
#224 = CARTESIAN_POINT ( 'NONE',  ( 1261.957632148625900, 143.3480527732959300, 0.0000000000000000000 ) ) ;
#225 = CARTESIAN_POINT ( 'NONE',  ( 1300.000000000000200, 2.498001805406602200E-013, 0.0000000000000000000 ) ) ;
#226 = CARTESIAN_POINT ( 'NONE',  ( 358.8828802512922500, 448.1054264400415300, -2.535065521208122800 ) ) ;
#227 = CARTESIAN_POINT ( 'NONE',  ( 502.3810411556945000, 496.8643254366317000, -2.483454254187855300 ) ) ;
#228 = CARTESIAN_POINT ( 'NONE',  ( 181.9999999999999400, 4.625929269271485200E-014, 166.6666666666666600 ) ) ;
#229 = CARTESIAN_POINT ( 'NONE',  ( 318.5000000000000000, 6.013708050052930800E-014, 291.6666666666666900 ) ) ;
#230 = CARTESIAN_POINT ( 'NONE',  ( 357.5236570126507400, 450.9658970452046000, 0.0000000000000000000 ) ) ;
#231 = CARTESIAN_POINT ( 'NONE',  ( 364.0000000000000000, 6.476300976980080200E-014, 333.3333333333333100 ) ) ;
#232 = CARTESIAN_POINT ( 'NONE',  ( 432.2499999999999400, 7.170190367370803100E-014, 395.8333333333333100 ) ) ;
#233 = CARTESIAN_POINT ( 'NONE',  ( 501.6898992460904200, 500.0000000000002300, 0.0000000000000000000 ) ) ;
#234 = CARTESIAN_POINT ( 'NONE',  ( 2.659059053280306500, -0.7056733641397756600, -2.903692486182216600 ) ) ;
#235 = CARTESIAN_POINT ( 'NONE',  ( 90.99999999999990100, 3.700743415417188300E-014, 83.33333333333332900 ) ) ;
#236 = CARTESIAN_POINT ( 'NONE',  ( 520.2373367455882100, 33.40708925478784900, 465.9046044386699400 ) ) ;
#237 = CARTESIAN_POINT ( 'NONE',  ( 321.1745961412448200, -0.5632820566170767500, 288.7460076804272800 ) ) ;
#238 = CARTESIAN_POINT ( 'NONE',  ( 434.9369385116058300, -0.4153724890207795600, 392.8991964786597500 ) ) ;
#239 = CARTESIAN_POINT ( 'NONE',  ( 434.9369385116058300, -0.4153724890207795600, 392.8991964786597500 ) ) ;
#240 = CARTESIAN_POINT ( 'NONE',  ( 482.8372990626199900, 20.38410555197320300, 434.6082701192573300 ) ) ;
#241 = CARTESIAN_POINT ( 'NONE',  ( 489.0129348286223500, 40.30017067382768700, 434.6610358636430600 ) ) ;
#242 = CARTESIAN_POINT ( 'NONE',  ( 384.9721657558222300, 63.43094606646385400, 330.5107128915854000 ) ) ;
#243 = CARTESIAN_POINT ( 'NONE',  ( 537.3264302321223300, -0.07762444141715733900, 486.6333715198557600 ) ) ;
#244 = CARTESIAN_POINT ( 'NONE',  ( 530.6472023482696200, 31.11664460202833000, 476.3190628586001500 ) ) ;
#245 = CARTESIAN_POINT ( 'NONE',  ( 551.4741089464201900, 26.56925378708341500, 497.1484858873636800 ) ) ;
#246 = CARTESIAN_POINT ( 'NONE',  ( 468.1996370959307100, 44.90750335322257300, 413.8317701444107700 ) ) ;
#247 = CARTESIAN_POINT ( 'NONE',  ( 509.8274711429069200, 35.69753390754738100, 455.4901460187397200 ) ) ;
#248 = CARTESIAN_POINT ( 'NONE',  ( 343.3678927074278700, 72.72403076457933900, 288.8479822275893400 ) ) ;
#249 = CARTESIAN_POINT ( 'NONE',  ( 301.7659198149353300, 82.02354744598054000, 247.1844479064667400 ) ) ;
#250 = CARTESIAN_POINT ( 'NONE',  ( 218.5619740299502500, 100.6225808087829400, 163.8573792642215500 ) ) ;
#251 = CARTESIAN_POINT ( 'NONE',  ( 93.66171301083524300, -0.6837478038043227600, 80.42674272550112800 ) ) ;
#252 = CARTESIAN_POINT ( 'NONE',  ( 504.8063069713388700, 18.03895901611177500, 455.4374206313162900 ) ) ;
#253 = CARTESIAN_POINT ( 'NONE',  ( 503.1970014700686400, -0.2383842995501679300, 455.3882077280184100 ) ) ;
#254 = CARTESIAN_POINT ( 'NONE',  ( 548.7014302321223300, 7.239289996354215900E-014, 497.0500381865224400 ) ) ;
#255 = CARTESIAN_POINT ( 'NONE',  ( 2.659059053280306500, -0.7056733641397756600, -2.903692486182216600 ) ) ;
#256 = CARTESIAN_POINT ( 'NONE',  ( 197.3235088700535900, 51.41206882775269100, 163.8061323061258700 ) ) ;
#257 = CARTESIAN_POINT ( 'NONE',  ( 184.6650723320923900, -0.6571016110507371700, 163.7564076800216500 ) ) ;
#258 = CARTESIAN_POINT ( 'NONE',  ( 21.65284773725630900, 70.66193949387569300, -2.854313186975783600 ) ) ;
#259 = CARTESIAN_POINT ( 'NONE',  ( 135.3680002526927200, 119.2512542905852900, 80.52722123732198200 ) ) ;
#260 = CARTESIAN_POINT ( 'NONE',  ( 447.3911699078508400, 49.53317264508579900, 393.0019025295528100 ) ) ;
#261 = CARTESIAN_POINT ( 'NONE',  ( 52.17556718924580400, 137.8837530409046200, -2.803584523852821900 ) ) ;
#262 = CARTESIAN_POINT ( 'NONE',  ( 426.5848351905079300, 54.16576378554514500, 372.1715059835636300 ) ) ;
#263 = CARTESIAN_POINT ( 'NONE',  ( 503.1970492811521500, -0.2328429182452070600, 455.3881555183152700 ) ) ;
#264 = CARTESIAN_POINT ( 'NONE',  ( 537.7647265491164000, 14.56609446754138700, 486.6812663828191600 ) ) ;
#265 = CARTESIAN_POINT ( 'NONE',  ( 556.5566536748756300, 38.70550136139273400, 497.2008729012475800 ) ) ;
#266 = CARTESIAN_POINT ( 'NONE',  ( 546.8730857900271800, 41.98722170054254800, 486.7860711746210400 ) ) ;
#267 = CARTESIAN_POINT ( 'NONE',  ( 438.9034018881089300, 25.10503640548305500, 392.9492691740306300 ) ) ;
#268 = CARTESIAN_POINT ( 'NONE',  ( 537.1943264948932900, 45.28417739193038500, 476.3716944482272300 ) ) ;
#269 = CARTESIAN_POINT ( 'NONE',  ( 366.6785896572055200, -0.5241600964541227600, 330.4083134276648400 ) ) ;
#270 = CARTESIAN_POINT ( 'NONE',  ( 499.4195836949682000, 37.99650433413024300, 445.0756687232592400 ) ) ;
#271 = CARTESIAN_POINT ( 'NONE',  ( 526.7779262232929800, 15.71772467533115900, 476.2666399905714900 ) ) ;
#272 = CARTESIAN_POINT ( 'NONE',  ( 457.6901720764764100, -0.3707968433323177700, 413.7289987591544200 ) ) ;
#273 = CARTESIAN_POINT ( 'NONE',  ( 514.5735617751645300, -0.1842837167477558700, 465.8031705415204400 ) ) ;
#274 = CARTESIAN_POINT ( 'NONE',  ( 93.66171327036504100, -0.6837478037417935600, 80.42674296315058800 ) ) ;
#275 = CARTESIAN_POINT ( 'NONE',  ( 548.7014302321223300, 7.239289996354215900E-014, 497.0500381865224400 ) ) ;
#276 = CARTESIAN_POINT ( 'NONE',  ( 366.6785896572054600, -0.5241600964541227600, 330.4083134276648400 ) ) ;
#277 = CARTESIAN_POINT ( 'NONE',  ( 412.1841555601390600, -0.4516350248318939400, 372.0689021283280900 ) ) ;
#278 = CARTESIAN_POINT ( 'NONE',  ( 480.4435867732725600, -0.3045905714412429100, 434.5586032435863900 ) ) ;
#279 = CARTESIAN_POINT ( 'NONE',  ( 184.6650723320924200, -0.6571016110507371700, 163.7564076800217100 ) ) ;
#280 = CARTESIAN_POINT ( 'NONE',  ( 548.7526162641191800, 13.43312602981903900, 497.0969118421971900 ) ) ;
#281 = CARTESIAN_POINT ( 'NONE',  ( 515.7921165973159500, 16.87834184572146500, 465.8520303109439200 ) ) ;
#282 = CARTESIAN_POINT ( 'NONE',  ( 493.8214537047992400, 19.20893768052591700, 445.0229051621078600 ) ) ;
#283 = CARTESIAN_POINT ( 'NONE',  ( 460.8689897782616100, 22.73444129486777900, 413.7790000335562000 ) ) ;
#284 = CARTESIAN_POINT ( 'NONE',  ( 109.4875878760160900, 61.03485093837732500, 80.47626764458607300 ) ) ;
#285 = CARTESIAN_POINT ( 'NONE',  ( 525.9514409387785500, -0.1552488097708087400, 476.2167146578193000 ) ) ;
#286 = CARTESIAN_POINT ( 'NONE',  ( 525.9500742691769800, -0.1357245152503047100, 476.2181855647255600 ) ) ;
#287 = CARTESIAN_POINT ( 'NONE',  ( 546.0000000000000000, 8.326672684688674100E-014, 500.0000000000000000 ) ) ;
#288 = CARTESIAN_POINT ( 'NONE',  ( 416.9391979179364400, 27.48333811895859200, 372.1190065944130100 ) ) ;
#289 = CARTESIAN_POINT ( 'NONE',  ( 491.8202941216706000, -0.2714874354957054200, 444.9734054858024000 ) ) ;
#290 = CARTESIAN_POINT ( 'NONE',  ( 457.6901720764764100, -0.3707968433323178300, 413.7289987591544200 ) ) ;
#291 = CARTESIAN_POINT ( 'NONE',  ( 321.1745961412448200, -0.5632820566170767500, 288.7460076804272800 ) ) ;
#292 = CARTESIAN_POINT ( 'NONE',  ( 275.6714215381940100, -0.5945552414282968500, 247.0828076802920900 ) ) ;
#293 = CARTESIAN_POINT ( 'NONE',  ( 2.659059053280306500, -0.7056733641397755500, -2.903692486182216600 ) ) ;
#294 = CARTESIAN_POINT ( 'NONE',  ( 373.0107899775913400, 32.23994154590966600, 330.4584814351777600 ) ) ;
#295 = CARTESIAN_POINT ( 'NONE',  ( 329.0877300293109900, 37.02756691785536700, 288.7960430411695300 ) ) ;
#296 = CARTESIAN_POINT ( 'NONE',  ( 285.1663229762251600, 41.82240088782113900, 247.1327394628216600 ) ) ;
#297 = CARTESIAN_POINT ( 'NONE',  ( 541.0590281940266100, 28.83436808210730700, 486.7334401065147600 ) ) ;
#298 = CARTESIAN_POINT ( 'NONE',  ( 564.5098746252534700, 83.32087041277561900, 476.5245946958678500 ) ) ;
#299 = CARTESIAN_POINT ( 'NONE',  ( 169.8815551063269100, 171.8046277629067600, 80.57644938609516300 ) ) ;
#300 = CARTESIAN_POINT ( 'NONE',  ( 347.2252424705835700, 154.8351778914310700, 247.2849292833206500 ) ) ;
#301 = CARTESIAN_POINT ( 'NONE',  ( 557.4808692852717500, 89.28069273487771800, 466.1094487410186400 ) ) ;
#302 = CARTESIAN_POINT ( 'NONE',  ( 543.4265992395920600, 101.2044657235472600, 445.2790091230030500 ) ) ;
#303 = CARTESIAN_POINT ( 'NONE',  ( 522.3571432311573500, 119.1030331488323500, 414.0327173569953600 ) ) ;
#304 = CARTESIAN_POINT ( 'NONE',  ( 508.3190895176346100, 131.0441568334181600, 393.2013237447199000 ) ) ;
#305 = CARTESIAN_POINT ( 'NONE',  ( 479.1530975641643400, 65.15147413513206200, 413.8838127056920400 ) ) ;
#306 = CARTESIAN_POINT ( 'NONE',  ( 494.2842707954445100, 142.9885220039843700, 372.3696136554115700 ) ) ;
#307 = CARTESIAN_POINT ( 'NONE',  ( 520.7724801286722100, 93.26282703602494500, 434.8174435496010800 ) ) ;
#308 = CARTESIAN_POINT ( 'NONE',  ( 466.2146333510643800, 166.8772523451168000, 330.7061934767948500 ) ) ;
#309 = CARTESIAN_POINT ( 'NONE',  ( 410.1044465770771700, 214.6839081160503600, 247.3765353314078400 ) ) ;
#310 = CARTESIAN_POINT ( 'NONE',  ( 488.6013239863631800, 114.1687471836980300, 393.1562644442367400 ) ) ;
#311 = CARTESIAN_POINT ( 'NONE',  ( 504.6827253454556500, 103.7101914182704700, 413.9871675187837400 ) ) ;
#312 = CARTESIAN_POINT ( 'NONE',  ( 472.5232529576393300, 124.6314782926560000, 372.3249696764793800 ) ) ;
#313 = CARTESIAN_POINT ( 'NONE',  ( 534.7990532358520600, 63.76955618316246400, 466.0097669331580600 ) ) ;
#314 = CARTESIAN_POINT ( 'NONE',  ( 418.6503802598400600, 120.0895013370119400, 330.6126635882919800 ) ) ;
#315 = CARTESIAN_POINT ( 'NONE',  ( 498.4967785584580600, 58.51991073821420000, 434.7133280202300500 ) ) ;
#316 = CARTESIAN_POINT ( 'NONE',  ( 247.5414178322735700, 271.2479806087858900, 80.67321944087081000 ) ) ;
#317 = CARTESIAN_POINT ( 'NONE',  ( 527.5181949907201900, 48.58832271897515700, 465.9571856859140000 ) ) ;
#318 = CARTESIAN_POINT ( 'NONE',  ( 552.9658847881625000, 72.38720573144885900, 476.4771952849507700 ) ) ;
#319 = CARTESIAN_POINT ( 'NONE',  ( 311.8056872337498400, 229.3378132717678600, 164.0045219347007300 ) ) ;
#320 = CARTESIAN_POINT ( 'NONE',  ( 536.8643744268334800, 82.81832760414111800, 455.6475582963739700 ) ) ;
#321 = CARTESIAN_POINT ( 'NONE',  ( 571.5424820055401400, 77.36498189401577000, 486.9395745469487300 ) ) ;
#322 = CARTESIAN_POINT ( 'NONE',  ( 536.4034472367804900, 107.1706548653089500, 434.8635785343338400 ) ) ;
#323 = CARTESIAN_POINT ( 'NONE',  ( 440.3671109001914500, 145.5569405105719300, 330.6623801409646700 ) ) ;
#324 = CARTESIAN_POINT ( 'NONE',  ( 438.1579658989553500, 190.7790959486187000, 289.0415717433780900 ) ) ;
#325 = CARTESIAN_POINT ( 'NONE',  ( 401.8112730078311800, 91.76022370173788500, 330.5616882399386900 ) ) ;
#326 = CARTESIAN_POINT ( 'NONE',  ( 490.1065580323980300, 85.39544491704154400, 413.9358552669733100 ) ) ;
#327 = CARTESIAN_POINT ( 'NONE',  ( 353.9974079333209100, 262.4935324509137300, 164.0464625074672800 ) ) ;
#328 = CARTESIAN_POINT ( 'NONE',  ( 297.9046120980777300, 310.3169376217638800, 80.71471473329596300 ) ) ;
#329 = CARTESIAN_POINT ( 'NONE',  ( 204.3951099599611000, 224.3580012352281900, 80.62567753486834500 ) ) ;
#330 = CARTESIAN_POINT ( 'NONE',  ( 588.0830053792412900, 80.85834127819168800, 497.4025523371769300 ) ) ;
#331 = CARTESIAN_POINT ( 'NONE',  ( 582.0647111128656700, 87.55330209257486700, 486.9873192283665700 ) ) ;
#332 = CARTESIAN_POINT ( 'NONE',  ( 576.0538644623444500, 94.25453509410239400, 476.5719941067849300 ) ) ;
#333 = CARTESIAN_POINT ( 'NONE',  ( 241.8137747230449000, 358.1420928600417100, -2.617346510289041600 ) ) ;
#334 = CARTESIAN_POINT ( 'NONE',  ( 472.2401804528522600, 94.06508779034092500, 393.1054022498709100 ) ) ;
#335 = CARTESIAN_POINT ( 'NONE',  ( 247.1825961894489300, 145.1040900142575700, 163.9069701137162600 ) ) ;
#336 = CARTESIAN_POINT ( 'NONE',  ( 440.4808744561780700, 78.45282804572154600, 372.2229976731208000 ) ) ;
#337 = CARTESIAN_POINT ( 'NONE',  ( 543.7414506415170800, 59.45171018183244600, 476.4243260378543100 ) ) ;
#338 = CARTESIAN_POINT ( 'NONE',  ( 92.58227281829582000, 198.5084789316230500, -2.754640228297148900 ) ) ;
#339 = CARTESIAN_POINT ( 'NONE',  ( 454.3769137218482100, 102.7398923058979200, 372.2744893626779100 ) ) ;
#340 = CARTESIAN_POINT ( 'NONE',  ( 382.9362545314015700, 137.4599672272805700, 288.9491134433755000 ) ) ;
#341 = CARTESIAN_POINT ( 'NONE',  ( 324.4955811427594200, 118.4293626687058200, 247.2346885948937000 ) ) ;
#342 = CARTESIAN_POINT ( 'NONE',  ( 275.8032183489476100, 189.5855992197321300, 163.9565609632109300 ) ) ;
#343 = CARTESIAN_POINT ( 'NONE',  ( 507.9806222882938900, 76.73965080260072100, 434.7656201768170400 ) ) ;
#344 = CARTESIAN_POINT ( 'NONE',  ( 508.1686190556049500, 55.20412903975527300, 445.1280856774990900 ) ) ;
#345 = CARTESIAN_POINT ( 'NONE',  ( 544.9151296074979900, 77.60276666779499500, 466.0623767906623700 ) ) ;
#346 = CARTESIAN_POINT ( 'NONE',  ( 408.2242856188659100, 166.4992735005568200, 288.9983107337124000 ) ) ;
#347 = CARTESIAN_POINT ( 'NONE',  ( 578.5823902045217400, 71.41760979547827000, 497.3545295070845200 ) ) ;
#348 = CARTESIAN_POINT ( 'NONE',  ( 183.2792219589212600, 313.1604260700418100, -2.658487004829500800 ) ) ;
#349 = CARTESIAN_POINT ( 'NONE',  ( 459.8156751803515500, 71.79913021771336900, 393.0536523897118300 ) ) ;
#350 = CARTESIAN_POINT ( 'NONE',  ( 132.9889784473458600, 259.1332048223415000, -2.705695932741476000 ) ) ;
#351 = CARTESIAN_POINT ( 'NONE',  ( 550.4518639452900300, 95.24051505697981700, 455.6943027861694300 ) ) ;
#352 = CARTESIAN_POINT ( 'NONE',  ( 517.8420634865470900, 51.89246804601992100, 455.5426769236007100 ) ) ;
#353 = CARTESIAN_POINT ( 'NONE',  ( 363.1520736194146900, 105.0919989959299600, 288.8985478354824200 ) ) ;
#354 = CARTESIAN_POINT ( 'NONE',  ( 561.6391984033309700, 50.84174893570205000, 497.2532599151315400 ) ) ;
#355 = CARTESIAN_POINT ( 'NONE',  ( 552.6871433860276300, 55.14007531897780000, 486.8387022427273200 ) ) ;
#356 = CARTESIAN_POINT ( 'NONE',  ( 525.8566558301871500, 68.08740218449246100, 455.5952078284617500 ) ) ;
#357 = CARTESIAN_POINT ( 'NONE',  ( 569.0817750298022000, 61.97687831276485300, 497.3065066769921100 ) ) ;
#358 = CARTESIAN_POINT ( 'NONE',  ( 561.0202528982147200, 67.17666169545665900, 486.8918298655308900 ) ) ;
#359 = CARTESIAN_POINT ( 'NONE',  ( 376.0847528238272700, 187.4454534242938500, 247.3337144673751900 ) ) ;
#360 = CARTESIAN_POINT ( 'NONE',  ( 516.9176544162418200, 72.41175374538029500, 445.1805026317388800 ) ) ;
#361 = CARTESIAN_POINT ( 'NONE',  ( 528.8173575202804400, 88.03914484490218200, 445.2325815650097000 ) ) ;
#362 = CARTESIAN_POINT ( 'NONE',  ( 463.9158219427556000, 399.8910078563343400, 80.81376083919485600 ) ) ;
#363 = CARTESIAN_POINT ( 'NONE',  ( 434.4517536925099000, 461.2381295382606400, -2.519207065038320700 ) ) ;
#364 = CARTESIAN_POINT ( 'NONE',  ( 623.5229732479431300, 98.22081135488409100, 497.5006788521766900 ) ) ;
#365 = CARTESIAN_POINT ( 'NONE',  ( 621.0081698998476400, 106.2691202177649200, 487.0842602224101400 ) ) ;
#366 = CARTESIAN_POINT ( 'NONE',  ( 618.4973909577465700, 114.3183694931314700, 476.6678135665844100 ) ) ;
#367 = CARTESIAN_POINT ( 'NONE',  ( 560.2070543930128700, 146.4345159567101300, 414.1163204655422300 ) ) ;
#368 = CARTESIAN_POINT ( 'NONE',  ( 570.0466089630455100, 100.9586188019604500, 466.1565206913748500 ) ) ;
#369 = CARTESIAN_POINT ( 'NONE',  ( 600.2915831263153400, 116.2040413084837400, 466.2238191653229900 ) ) ;
#370 = CARTESIAN_POINT ( 'NONE',  ( 592.9040398088819800, 131.5316182002630400, 445.3914111374113500 ) ) ;
#371 = CARTESIAN_POINT ( 'NONE',  ( 552.0344143448887700, 121.0784826945929600, 434.9097135190666000 ) ) ;
#372 = CARTESIAN_POINT ( 'NONE',  ( 444.1241403303271200, 241.9223628078069100, 247.4193561954404900 ) ) ;
#373 = CARTESIAN_POINT ( 'NONE',  ( 300.3483274871685500, 403.1237596500416800, -2.576206015748582400 ) ) ;
#374 = CARTESIAN_POINT ( 'NONE',  ( 589.4759732354118600, 102.7633285410061900, 476.6121721533775100 ) ) ;
#375 = CARTESIAN_POINT ( 'NONE',  ( 579.7133717194070600, 117.3167611583905600, 455.7804245845335300 ) ) ;
#376 = CARTESIAN_POINT ( 'NONE',  ( 550.4620265528411700, 160.9979805988593600, 393.2839359578045400 ) ) ;
#377 = CARTESIAN_POINT ( 'NONE',  ( 482.2908467918080100, 262.9660232739011600, 247.4547181853988000 ) ) ;
#378 = CARTESIAN_POINT ( 'NONE',  ( 404.4192990664382700, 379.5213640948206300, 80.79033926953341900 ) ) ;
#379 = CARTESIAN_POINT ( 'NONE',  ( 611.3873285719510000, 93.21923504105205900, 497.4721587841440900 ) ) ;
#380 = CARTESIAN_POINT ( 'NONE',  ( 516.0452886332497000, 161.3455657153127400, 372.4142576343437000 ) ) ;
#381 = CARTESIAN_POINT ( 'NONE',  ( 607.6843191198132700, 100.8787878406742400, 487.0561020729905400 ) ) ;
#382 = CARTESIAN_POINT ( 'NONE',  ( 603.9866820965792200, 108.5408490170688200, 476.6399928599809600 ) ) ;
#383 = CARTESIAN_POINT ( 'NONE',  ( 501.7617168101461400, 233.8287557973943600, 289.1206104982226200 ) ) ;
#384 = CARTESIAN_POINT ( 'NONE',  ( 365.4910806138880700, 437.8029534089540700, -2.542399085356602800 ) ) ;
#385 = CARTESIAN_POINT ( 'NONE',  ( 589.2130580698193400, 139.1966407694579000, 434.9751294410251000 ) ) ;
#386 = CARTESIAN_POINT ( 'NONE',  ( 552.3326104981841800, 215.8595673567453700, 330.8112805693855900 ) ) ;
#387 = CARTESIAN_POINT ( 'NONE',  ( 468.0916461790447400, 215.0589183966805500, 289.0848327530437700 ) ) ;
#388 = CARTESIAN_POINT ( 'NONE',  ( 521.2351943086953300, 204.6928304108723800, 330.7863061678532400 ) ) ;
#389 = CARTESIAN_POINT ( 'NONE',  ( 396.1891286328918800, 295.6492516300596100, 164.0884030802338600 ) ) ;
#390 = CARTESIAN_POINT ( 'NONE',  ( 558.0358409589035800, 114.3697866021923300, 445.3254366809964000 ) ) ;
#391 = CARTESIAN_POINT ( 'NONE',  ( 348.2678063638819600, 349.3858946347418200, 80.75621002572111700 ) ) ;
#392 = CARTESIAN_POINT ( 'NONE',  ( 599.2516838959588800, 88.21765872722004100, 497.4436387161114800 ) ) ;
#393 = CARTESIAN_POINT ( 'NONE',  ( 594.3604683397788900, 95.48845546358354900, 487.0279439235709400 ) ) ;
#394 = CARTESIAN_POINT ( 'NONE',  ( 567.0807670319649100, 185.1926721272518300, 372.4769724337398900 ) ) ;
#395 = CARTESIAN_POINT ( 'NONE',  ( 528.0368550489058600, 147.9195664831382800, 393.2463830452030600 ) ) ;
#396 = CARTESIAN_POINT ( 'NONE',  ( 540.7197491381258500, 175.5629305361970300, 372.4513926944874800 ) ) ;
#397 = CARTESIAN_POINT ( 'NONE',  ( 584.5946724774095200, 110.0400448496983800, 466.1962983689555200 ) ) ;
#398 = CARTESIAN_POINT ( 'NONE',  ( 569.9592904700776900, 131.8751182544204700, 434.9484103842726200 ) ) ;
#399 = CARTESIAN_POINT ( 'NONE',  ( 581.8310945916943000, 154.5266859078475900, 414.1425660482525500 ) ) ;
#400 = CARTESIAN_POINT ( 'NONE',  ( 537.5932043302003600, 246.5301515430305100, 289.1452112387794400 ) ) ;
#401 = CARTESIAN_POINT ( 'NONE',  ( 574.8354085086100400, 124.5954194032756300, 445.3644553436377600 ) ) ;
#402 = CARTESIAN_POINT ( 'NONE',  ( 522.8558481956116600, 277.2015558289205000, 247.4790209738768600 ) ) ;
#403 = CARTESIAN_POINT ( 'NONE',  ( 540.0315611168590500, 134.4958748793942500, 414.0782671952069900 ) ) ;
#404 = CARTESIAN_POINT ( 'NONE',  ( 493.3811359264342400, 338.5443644007005400, 164.1466404440716400 ) ) ;
#405 = CARTESIAN_POINT ( 'NONE',  ( 574.4548452988552800, 169.8592245125050500, 393.3098183659170700 ) ) ;
#406 = CARTESIAN_POINT ( 'NONE',  ( 492.0621558019373700, 188.1975641796616700, 330.7500068126250900 ) ) ;
#407 = CARTESIAN_POINT ( 'NONE',  ( 596.5964841560514700, 123.8672335998986400, 455.8076454706650200 ) ) ;
#408 = CARTESIAN_POINT ( 'NONE',  ( 564.0393534637465800, 107.6627025098185200, 455.7410472759648300 ) ) ;
#409 = CARTESIAN_POINT ( 'NONE',  ( 443.3491067551316300, 321.2405582269148000, 164.1229335597511700 ) ) ;
#410 = CARTESIAN_POINT ( 'NONE',  ( 543.4131650977369600, 355.8481705744863500, 164.1703473283920700 ) ) ;
#411 = CARTESIAN_POINT ( 'NONE',  ( 523.4123448190729300, 420.2606516178481100, 80.83718240885627900 ) ) ;
#412 = CARTESIAN_POINT ( 'NONE',  ( 610.9726711091537900, 138.4678169972504800, 445.4183669311849500 ) ) ;
#413 = CARTESIAN_POINT ( 'NONE',  ( 598.4476640448693800, 178.7204684261507200, 393.3357007740295900 ) ) ;
#414 = CARTESIAN_POINT ( 'NONE',  ( 613.4795965926958800, 130.4177060414067200, 455.8348663567965700 ) ) ;
#415 = CARTESIAN_POINT ( 'NONE',  ( 603.4551347903756100, 162.6188558589850600, 414.1688116309628600 ) ) ;
#416 = CARTESIAN_POINT ( 'NONE',  ( 593.4417849258038600, 194.8224137183066200, 372.5025521729923500 ) ) ;
#417 = CARTESIAN_POINT ( 'NONE',  ( 615.9884937752212900, 122.3680377672691000, 466.2513399616905200 ) ) ;
#418 = CARTESIAN_POINT ( 'NONE',  ( 583.4300266876729200, 227.0263043026184000, 330.8362549709178800 ) ) ;
#419 = CARTESIAN_POINT ( 'NONE',  ( 573.4246918502547000, 259.2315472886666000, 289.1698119793363200 ) ) ;
#420 = CARTESIAN_POINT ( 'NONE',  ( 608.4668256695611000, 146.5181632844953300, 435.0018484977776400 ) ) ;
#421 = CARTESIAN_POINT ( 'NONE',  ( 563.4208495994154200, 291.4370883839399100, 247.5033237623549400 ) ) ;
#422 = CARTESIAN_POINT ( 'NONE',  ( 636.6243794572602600, 100.8643254366314700, 497.5165457458121500 ) ) ;
#423 = CARTESIAN_POINT ( 'NONE',  ( 503.4124267711316100, 484.6733056675672100, -2.496015044720038200 ) ) ;
#424 = CARTESIAN_POINT ( 'NONE',  ( 771.1832104562454300, 88.03856956713457300, 445.2326335933759700 ) ) ;
#425 = CARTESIAN_POINT ( 'NONE',  ( 779.2281048517389800, 93.26223872084401000, 434.8174995378000200 ) ) ;
#426 = CARTESIAN_POINT ( 'NONE',  ( 795.3178936427262900, 103.7095770282628600, 413.9872314266482400 ) ) ;
#427 = CARTESIAN_POINT ( 'NONE',  ( 728.4575179944598600, 77.36498189401575600, 486.9395745469487300 ) ) ;
#428 = CARTESIAN_POINT ( 'NONE',  ( 805.7157292045554900, 142.9885220039843700, 372.3696136554115700 ) ) ;
#429 = CARTESIAN_POINT ( 'NONE',  ( 811.3992657510353900, 114.1681678973278600, 393.1563288163531000 ) ) ;
#430 = CARTESIAN_POINT ( 'NONE',  ( 791.6809104823654500, 131.0441568334181600, 393.2013237447199000 ) ) ;
#431 = CARTESIAN_POINT ( 'NONE',  ( 889.8955534229229400, 214.6839081160503900, 247.3765353314078400 ) ) ;
#432 = CARTESIAN_POINT ( 'NONE',  ( 738.9800030928217900, 67.17638728900817600, 486.8918446334949400 ) ) ;
#433 = CARTESIAN_POINT ( 'NONE',  ( 742.5191307147282500, 89.28069273487770400, 466.1094487410186400 ) ) ;
#434 = CARTESIAN_POINT ( 'NONE',  ( 763.1361603787693200, 82.81778083595766300, 455.6476043658120100 ) ) ;
#435 = CARTESIAN_POINT ( 'NONE',  ( 721.4176097954782600, 71.41760979547825600, 497.3545295070845200 ) ) ;
#436 = CARTESIAN_POINT ( 'NONE',  ( 1058.186225276955200, 358.1420928600417700, -2.617346510289041600 ) ) ;
#437 = CARTESIAN_POINT ( 'NONE',  ( 749.5481360547099700, 95.24051505697980200, 455.6943027861694300 ) ) ;
#438 = CARTESIAN_POINT ( 'NONE',  ( 777.6428567688426500, 119.1030331488323200, 414.0327173569953600 ) ) ;
#439 = CARTESIAN_POINT ( 'NONE',  ( 730.9182249701979100, 61.97687831276484600, 497.3065066769921100 ) ) ;
#440 = CARTESIAN_POINT ( 'NONE',  ( 735.4901253747464100, 83.32087041277560500, 476.5245946958678500 ) ) ;
#441 = CARTESIAN_POINT ( 'NONE',  ( 763.5965527632196200, 107.1706548653089300, 434.8635785343338400 ) ) ;
#442 = CARTESIAN_POINT ( 'NONE',  ( 756.5734007604080500, 101.2044657235472300, 445.2790091230030500 ) ) ;
#443 = CARTESIAN_POINT ( 'NONE',  ( 861.8420341010447600, 190.7790959486187000, 289.0415717433780900 ) ) ;
#444 = CARTESIAN_POINT ( 'NONE',  ( 1002.095387901922300, 310.3169376217639400, 80.71471473329596300 ) ) ;
#445 = CARTESIAN_POINT ( 'NONE',  ( 747.0344912357379600, 72.38681317765242800, 476.4772230162610100 ) ) ;
#446 = CARTESIAN_POINT ( 'NONE',  ( 946.0025920666792000, 262.4935324509137900, 164.0464625074672800 ) ) ;
#447 = CARTESIAN_POINT ( 'NONE',  ( 755.0853258072536400, 77.60229700680504500, 466.0624136910365100 ) ) ;
#448 = CARTESIAN_POINT ( 'NONE',  ( 833.7853666489356800, 166.8772523451168000, 330.7061934767948500 ) ) ;
#449 = CARTESIAN_POINT ( 'NONE',  ( 827.4773039576306200, 124.6309351350558800, 372.3250326978210300 ) ) ;
#450 = CARTESIAN_POINT ( 'NONE',  ( 891.7761131305137500, 166.4988940542845300, 288.9983612826110300 ) ) ;
#451 = CARTESIAN_POINT ( 'NONE',  ( 923.9155725464609100, 187.4451454581153500, 247.3337566630592900 ) ) ;
#452 = CARTESIAN_POINT ( 'NONE',  ( 988.1944913783552200, 229.3376482657769800, 164.0045474239557800 ) ) ;
#453 = CARTESIAN_POINT ( 'NONE',  ( 1052.458659302762300, 271.2479092928286400, 80.67323041598557200 ) ) ;
#454 = CARTESIAN_POINT ( 'NONE',  ( 859.6333803708211000, 145.5564696105119300, 330.6624404607569000 ) ) ;
#455 = CARTESIAN_POINT ( 'NONE',  ( 1116.720778041078800, 313.1604260700419200, -2.658487004829500800 ) ) ;
#456 = CARTESIAN_POINT ( 'NONE',  ( 738.3608015966690300, 50.84174893570203600, 497.2532599151315400 ) ) ;
#457 = CARTESIAN_POINT ( 'NONE',  ( 747.3128566139723700, 55.14007531897778600, 486.8387022427273200 ) ) ;
#458 = CARTESIAN_POINT ( 'NONE',  ( 756.2585493584830400, 59.45171018183244600, 476.4243260378543100 ) ) ;
#459 = CARTESIAN_POINT ( 'NONE',  ( 765.2009467641479400, 63.76955618316245000, 466.0097669331580600 ) ) ;
#460 = CARTESIAN_POINT ( 'NONE',  ( 774.1433441698128500, 68.08740218449246100, 455.5952078284617500 ) ) ;
#461 = CARTESIAN_POINT ( 'NONE',  ( 783.0823455837583000, 72.41175374538028100, 445.1805026317389300 ) ) ;
#462 = CARTESIAN_POINT ( 'NONE',  ( 792.0193777117062800, 76.73965080260070700, 434.7656201768170900 ) ) ;
#463 = CARTESIAN_POINT ( 'NONE',  ( 809.8934419676020300, 85.39544491704154400, 413.9358552669733600 ) ) ;
#464 = CARTESIAN_POINT ( 'NONE',  ( 827.7598195471479100, 94.06508779034089700, 393.1054022498709100 ) ) ;
#465 = CARTESIAN_POINT ( 'NONE',  ( 845.6230862781519600, 102.7398923058979100, 372.2744893626779100 ) ) ;
#466 = EDGE_LOOP ( 'NONE', ( #510, #480, #511, #508 ) ) ;
#467 = EDGE_LOOP ( 'NONE', ( #482, #479, #483, #476 ) ) ;
#468 = EDGE_LOOP ( 'NONE', ( #501, #513, #505, #509 ) ) ;
#469 = VERTEX_POINT ( 'NONE', #111 ) ;
#470 = VERTEX_POINT ( 'NONE', #126 ) ;
#471 = VERTEX_POINT ( 'NONE', #113 ) ;
#472 = VERTEX_POINT ( 'NONE', #131 ) ;
#473 = VERTEX_POINT ( 'NONE', #121 ) ;
#474 = VERTEX_POINT ( 'NONE', #114 ) ;
#475 = ORIENTED_EDGE ( 'NONE', *, *, #542, .T. ) ;
#476 = ORIENTED_EDGE ( 'NONE', *, *, #538, .F. ) ;
#477 = EDGE_LOOP ( 'NONE', ( #516, #492, #493, #495 ) ) ;
#478 = ORIENTED_EDGE ( 'NONE', *, *, #526, .F. ) ;
#479 = ORIENTED_EDGE ( 'NONE', *, *, #532, .T. ) ;
#480 = ORIENTED_EDGE ( 'NONE', *, *, #529, .T. ) ;
#481 = VERTEX_POINT ( 'NONE', #128 ) ;
#482 = ORIENTED_EDGE ( 'NONE', *, *, #536, .F. ) ;
#483 = ORIENTED_EDGE ( 'NONE', *, *, #526, .T. ) ;
#484 = EDGE_LOOP ( 'NONE', ( #496, #504, #494, #515 ) ) ;
#485 = EDGE_LOOP ( 'NONE', ( #478, #498, #475, #487 ) ) ;
#486 = VERTEX_POINT ( 'NONE', #115 ) ;
#487 = ORIENTED_EDGE ( 'NONE', *, *, #531, .F. ) ;
#488 = CLOSED_SHELL ( 'NONE', ( #563, #564, #567, #566, #568, #565 ) ) ;
#489 = SURFACE_STYLE_FILL_AREA ( #709 ) ;
#490 = PRESENTATION_STYLE_ASSIGNMENT (( #708 ) ) ;
#491 = FACE_OUTER_BOUND ( 'NONE', #485, .T. ) ;
#492 = ORIENTED_EDGE ( 'NONE', *, *, #536, .T. ) ;
#493 = ORIENTED_EDGE ( 'NONE', *, *, #529, .F. ) ;
#494 = ORIENTED_EDGE ( 'NONE', *, *, #530, .T. ) ;
#495 = ORIENTED_EDGE ( 'NONE', *, *, #530, .F. ) ;
#496 = ORIENTED_EDGE ( 'NONE', *, *, #542, .F. ) ;
#497 = FACE_OUTER_BOUND ( 'NONE', #468, .T. ) ;
#498 = ORIENTED_EDGE ( 'NONE', *, *, #541, .T. ) ;
#499 = FACE_OUTER_BOUND ( 'NONE', #467, .T. ) ;
#500 = SURFACE_STYLE_FILL_AREA ( #216 ) ;
#501 = ORIENTED_EDGE ( 'NONE', *, *, #533, .F. ) ;
#502 = FACE_OUTER_BOUND ( 'NONE', #477, .T. ) ;
#503 = COLOUR_RGB ( '',1.000000000000000000, 1.000000000000000000, 0.5019607843137254800 ) ;
#504 = ORIENTED_EDGE ( 'NONE', *, *, #533, .T. ) ;
#505 = ORIENTED_EDGE ( 'NONE', *, *, #532, .F. ) ;
#506 = FACE_OUTER_BOUND ( 'NONE', #484, .T. ) ;
#507 = PRESENTATION_STYLE_ASSIGNMENT (( #221 ) ) ;
#508 = ORIENTED_EDGE ( 'NONE', *, *, #531, .T. ) ;
#509 = ORIENTED_EDGE ( 'NONE', *, *, #535, .F. ) ;
#510 = ORIENTED_EDGE ( 'NONE', *, *, #528, .T. ) ;
#511 = ORIENTED_EDGE ( 'NONE', *, *, #538, .T. ) ;
#512 = COLOUR_RGB ( '',1.000000000000000000, 1.000000000000000000, 0.5019607843137254800 ) ;
#513 = ORIENTED_EDGE ( 'NONE', *, *, #541, .F. ) ;
#514 = FACE_OUTER_BOUND ( 'NONE', #466, .T. ) ;
#515 = ORIENTED_EDGE ( 'NONE', *, *, #528, .F. ) ;
#516 = ORIENTED_EDGE ( 'NONE', *, *, #535, .T. ) ;
#517 = SHAPE_DEFINITION_REPRESENTATION ( #576, #550 ) ;
#518 = PRODUCT_DEFINITION_FORMATION_WITH_SPECIFIED_SOURCE ( 'ANY', '', #543, .NOT_KNOWN. ) ;
#519 = PRODUCT_RELATED_PRODUCT_CATEGORY ( 'part', '', ( #543 ) ) ;
#520 = AXIS2_PLACEMENT_3D ( 'NONE', #717, #725, #723 ) ;
#521 = PRODUCT_DEFINITION ( 'UNKNOWN', '', #518, #575 ) ;
#522 =( GEOMETRIC_REPRESENTATION_CONTEXT ( 3 ) GLOBAL_UNCERTAINTY_ASSIGNED_CONTEXT ( ( #562 ) ) GLOBAL_UNIT_ASSIGNED_CONTEXT ( ( #204, #196, #211 ) ) REPRESENTATION_CONTEXT ( 'NONE', 'WORKASPACE' ) );
#523 = STYLED_ITEM ( 'NONE', ( #490 ), #550 ) ;
#524 = PRESENTATION_LAYER_ASSIGNMENT (  '', '', ( #523 ) ) ;
#525 = MECHANICAL_DESIGN_GEOMETRIC_PRESENTATION_REPRESENTATION (  '', ( #523 ), #527 ) ;
#526 = EDGE_CURVE ( 'NONE', #471, #481, #546, .T. ) ;
#527 =( GEOMETRIC_REPRESENTATION_CONTEXT ( 3 ) GLOBAL_UNCERTAINTY_ASSIGNED_CONTEXT ( ( #552 ) ) GLOBAL_UNIT_ASSIGNED_CONTEXT ( ( #715, #735, #736 ) ) REPRESENTATION_CONTEXT ( 'NONE', 'WORKASPACE' ) );
#528 = EDGE_CURVE ( 'NONE', #469, #473, #547, .T. ) ;
#529 = EDGE_CURVE ( 'NONE', #473, #470, #548, .T. ) ;
#530 = EDGE_CURVE ( 'NONE', #472, #473, #551, .T. ) ;
#531 = EDGE_CURVE ( 'NONE', #481, #469, #558, .T. ) ;
#532 = EDGE_CURVE ( 'NONE', #474, #471, #554, .T. ) ;
#533 = EDGE_CURVE ( 'NONE', #486, #472, #557, .T. ) ;
#534 = PRESENTATION_LAYER_ASSIGNMENT (  '', '', ( #539 ) ) ;
#535 = EDGE_CURVE ( 'NONE', #472, #474, #555, .T. ) ;
#536 = EDGE_CURVE ( 'NONE', #474, #470, #559, .T. ) ;
#537 =( GEOMETRIC_REPRESENTATION_CONTEXT ( 3 ) GLOBAL_UNCERTAINTY_ASSIGNED_CONTEXT ( ( #556 ) ) GLOBAL_UNIT_ASSIGNED_CONTEXT ( ( #706, #714, #711 ) ) REPRESENTATION_CONTEXT ( 'NONE', 'WORKASPACE' ) );
#538 = EDGE_CURVE ( 'NONE', #470, #481, #560, .T. ) ;
#539 = STYLED_ITEM ( 'NONE', ( #507 ), #553 ) ;
#540 = MECHANICAL_DESIGN_GEOMETRIC_PRESENTATION_REPRESENTATION (  '', ( #539 ), #522 ) ;
#541 = EDGE_CURVE ( 'NONE', #471, #486, #549, .T. ) ;
#542 = EDGE_CURVE ( 'NONE', #486, #469, #561, .T. ) ;
#543 = PRODUCT ( 'Dprix Pieter_05 01 2026', 'Dprix Pieter_05 01 2026', '', ( #701 ) ) ;
#544 = CARTESIAN_POINT ( 'NONE',  ( 881.3496197401601600, 120.0895013370119500, 330.6126635882919800 ) ) ;
#545 = CARTESIAN_POINT ( 'NONE',  ( 917.0637454685985400, 137.4599672272806000, 288.9491134433755000 ) ) ;
#546 = B_SPLINE_CURVE_WITH_KNOTS ( 'NONE', 1,
 ( #130, #116 ),
 .UNSPECIFIED., .F., .F.,
 ( 2, 2 ),
 ( 0.0000000000000000000, 1.000000000000000000 ),
 .UNSPECIFIED. ) ;
#547 = B_SPLINE_CURVE_WITH_KNOTS ( 'NONE', 3,
 ( #132, #125, #117, #118, #119, #129, #120, #122, #123, #124 ),
 .UNSPECIFIED., .F., .F.,
 ( 4, 2, 2, 2, 4 ),
 ( 0.0000000000000000000, 0.2500000000000000000, 0.5000000000000000000, 0.7500000000000000000, 1.000000000000000000 ),
 .UNSPECIFIED. ) ;
#548 = B_SPLINE_CURVE_WITH_KNOTS ( 'NONE', 1,
 ( #127, #112 ),
 .UNSPECIFIED., .F., .F.,
 ( 2, 2 ),
 ( 0.0000000000000000000, 1.000000000000000000 ),
 .UNSPECIFIED. ) ;
#549 = B_SPLINE_CURVE_WITH_KNOTS ( 'NONE', 3,
 ( #146, #155, #219, #217, #215, #213, #214, #195, #193, #208 ),
 .UNSPECIFIED., .F., .F.,
 ( 4, 2, 2, 2, 4 ),
 ( 0.0000000000000000000, 0.5000000000000000000, 0.7500000000000000000, 0.8750000000000000000, 1.000000000000000000 ),
 .UNSPECIFIED. ) ;
#550 = ADVANCED_BREP_SHAPE_REPRESENTATION ( 'Dprix Pieter_05 01 2026', ( #553, #520 ), #537 ) ;
#551 = B_SPLINE_CURVE_WITH_KNOTS ( 'NONE', 1,
 ( #149, #181 ),
 .UNSPECIFIED., .F., .F.,
 ( 2, 2 ),
 ( 0.0000000000000000000, 1.000000000000000000 ),
 .UNSPECIFIED. ) ;
#552 = UNCERTAINTY_MEASURE_WITH_UNIT (LENGTH_MEASURE( 1.000000000000000100E-005 ), #715, 'distance_accuracy_value', 'NONE');
#553 = MANIFOLD_SOLID_BREP ( 'Plis de transition1', #488 ) ;
#554 = B_SPLINE_CURVE_WITH_KNOTS ( 'NONE', 3,
 ( #186, #139, #143, #178, #185, #175, #173, #140, #169, #142 ),
 .UNSPECIFIED., .F., .F.,
 ( 4, 2, 2, 2, 4 ),
 ( 0.0000000000000000000, 0.2500000000000000000, 0.5000000000000000000, 0.7500000000000000000, 1.000000000000000000 ),
 .UNSPECIFIED. ) ;
#555 = B_SPLINE_CURVE_WITH_KNOTS ( 'NONE', 3,
 ( #133, #182, #147, #174, #134, #138, #152, #150, #153, #154 ),
 .UNSPECIFIED., .F., .F.,
 ( 4, 2, 2, 2, 4 ),
 ( 0.0000000000000000000, 0.1250000000000000000, 0.2500000000000000000, 0.5000000000000000000, 1.000000000000000000 ),
 .UNSPECIFIED. ) ;
#556 = UNCERTAINTY_MEASURE_WITH_UNIT (LENGTH_MEASURE( 1.000000000000000100E-005 ), #706, 'distance_accuracy_value', 'NONE');
#557 = B_SPLINE_CURVE_WITH_KNOTS ( 'NONE', 3,
 ( #170, #179, #158, #156, #184, #135, #168, #141, #136, #137, #145, #165, #183, #187, #180, #148, #171, #188 ),
 .UNSPECIFIED., .F., .F.,
 ( 4, 2, 2, 2, 2, 2, 2, 2, 4 ),
 ( 0.0000000000000000000, 0.1250000000000000000, 0.2500000000000000000, 0.3750000000000000000, 0.5000000000000000000, 0.6250000000000000000, 0.7500000000000000000, 0.8750000000000000000, 1.000000000000000000 ),
 .UNSPECIFIED. ) ;
#558 = B_SPLINE_CURVE_WITH_KNOTS ( 'NONE', 1,
 ( #172, #151 ),
 .UNSPECIFIED., .F., .F.,
 ( 2, 2 ),
 ( 0.0000000000000000000, 1.000000000000000000 ),
 .UNSPECIFIED. ) ;
#559 = B_SPLINE_CURVE_WITH_KNOTS ( 'NONE', 1,
 ( #162, #177 ),
 .UNSPECIFIED., .F., .F.,
 ( 2, 2 ),
 ( 0.0000000000000000000, 1.000000000000000000 ),
 .UNSPECIFIED. ) ;
#560 = B_SPLINE_CURVE_WITH_KNOTS ( 'NONE', 3,
 ( #157, #159, #144, #160, #161, #163, #164, #166, #176, #167 ),
 .UNSPECIFIED., .F., .F.,
 ( 4, 2, 2, 2, 4 ),
 ( 0.0000000000000000000, 0.2500000000000000000, 0.5000000000000000000, 0.7500000000000000000, 1.000000000000000000 ),
 .UNSPECIFIED. ) ;
#561 = B_SPLINE_CURVE_WITH_KNOTS ( 'NONE', 1,
 ( #190, #218 ),
 .UNSPECIFIED., .F., .F.,
 ( 2, 2 ),
 ( 0.0000000000000000000, 1.000000000000000000 ),
 .UNSPECIFIED. ) ;
#562 = UNCERTAINTY_MEASURE_WITH_UNIT (LENGTH_MEASURE( 1.000000000000000100E-005 ), #204, 'distance_accuracy_value', 'NONE');
#563 = ADVANCED_FACE ( 'NONE', ( #499 ), #574, .F. ) ;
#564 = ADVANCED_FACE ( 'NONE', ( #491 ), #572, .T. ) ;
#565 = ADVANCED_FACE ( 'NONE', ( #497 ), #570, .F. ) ;
#566 = ADVANCED_FACE ( 'NONE', ( #502 ), #571, .T. ) ;
#567 = ADVANCED_FACE ( 'NONE', ( #506 ), #569, .T. ) ;
#568 = ADVANCED_FACE ( 'NONE', ( #514 ), #573, .T. ) ;
#569 = B_SPLINE_SURFACE_WITH_KNOTS ( 'NONE', 1, 3, ( 
 ( #642, #680, #643, #694, #646, #647, #690, #686, #668, #657, #658, #659, #692, #685, #662, #648, #691, #677 ),
 ( #695, #682, #678, #649, #679, #672, #698, #700, #683, #664, #641, #665, #687, #671, #688, #689, #673, #674 ) ),
 .UNSPECIFIED., .F., .F., .F.,
 ( 2, 2 ),
 ( 4, 2, 2, 2, 2, 2, 2, 2, 4 ),
 ( 0.0000000000000000000, 1.000000000000000000 ),
 ( 0.0000000000000000000, 0.1250000000000000000, 0.2500000000000000000, 0.3750000000000000000, 0.5000000000000000000, 0.6250000000000000000, 0.7500000000000000000, 0.8750000000000000000, 1.000000000000000000 ),
 .UNSPECIFIED. ) ;
#570 = B_SPLINE_SURFACE_WITH_KNOTS ( 'NONE', 3, 3, ( 
 ( #254, #243, #286, #273, #263, #289, #278, #272, #238, #277, #269, #291, #292, #279, #251, #293 ),
 ( #280, #264, #271, #281, #252, #282, #240, #283, #267, #288, #294, #295, #296, #256, #284, #258 ),
 ( #245, #297, #244, #236, #247, #270, #241, #246, #260, #262, #242, #248, #249, #250, #259, #261 ),
 ( #265, #266, #268, #317, #352, #344, #315, #305, #349, #336, #325, #353, #341, #335, #299, #338 ),
 ( #354, #355, #337, #313, #356, #360, #343, #326, #334, #339, #314, #340, #300, #342, #329, #350 ),
 ( #357, #358, #318, #345, #320, #361, #307, #311, #310, #312, #323, #346, #359, #319, #316, #348 ),
 ( #347, #321, #298, #301, #351, #302, #322, #303, #304, #306, #308, #324, #309, #327, #328, #333 ),
 ( #330, #331, #332, #368, #408, #390, #371, #403, #395, #380, #406, #387, #372, #389, #391, #373 ),
 ( #392, #393, #374, #397, #375, #401, #398, #367, #376, #396, #388, #383, #377, #409, #378, #384 ),
 ( #379, #381, #382, #369, #407, #370, #385, #399, #405, #394, #386, #400, #402, #404, #362, #363 ),
 ( #364, #365, #366, #417, #414, #412, #420, #415, #413, #416, #418, #419, #421, #410, #411, #423 ),
 ( #422, #71, #72, #73, #101, #95, #76, #77, #100, #97, #83, #78, #79, #80, #102, #98 ),
 ( #81, #103, #93, #84, #104, #96, #92, #75, #99, #88, #105, #106, #94, #82, #107, #109 ),
 ( #108, #110, #85, #74, #86, #87, #89, #90, #91, #209, #21, #22, #23, #24, #25, #26 ),
 ( #27, #29, #28, #37, #38, #51, #50, #35, #33, #34, #40, #54, #65, #69, #63, #70 ),
 ( #42, #43, #44, #67, #30, #41, #52, #59, #56, #53, #36, #31, #39, #45, #64, #58 ),
 ( #46, #47, #48, #49, #55, #57, #60, #61, #68, #62, #66, #32, #1, #6, #8, #10 ),
 ( #7, #9, #2, #3, #4, #5, #16, #13, #11, #12, #15, #14, #18, #17, #19, #20 ),
 ( #435, #427, #440, #433, #437, #442, #441, #438, #430, #428, #448, #443, #431, #446, #444, #436 ),
 ( #439, #432, #445, #447, #434, #424, #425, #426, #429, #449, #454, #450, #451, #452, #453, #455 ),
 ( #456, #457, #458, #459, #460, #461, #462, #463, #464, #465, #544, #545, #639, #615, #636, #589 ),
 ( #617, #588, #611, #627, #587, #601, #603, #630, #629, #618, #579, #581, #628, #624, #604, #590 ),
 ( #596, #631, #623, #594, #584, #632, #616, #605, #633, #620, #614, #578, #619, #610, #634, #635 ),
 ( #592, #637, #640, #622, #606, #613, #621, #593, #625, #580, #626, #608, #638, #577, #582, #583 ),
 ( #585, #599, #586, #591, #595, #597, #598, #602, #600, #607, #609, #612, #699, #684, #667, #675 ) ),
 .UNSPECIFIED., .F., .F., .F.,
 ( 4, 3, 3, 3, 3, 3, 3, 3, 4 ),
 ( 4, 3, 3, 3, 3, 4 ),
 ( -6.914649010241762800E-019, 0.1250000000000000000, 0.2500000000000000000, 0.3750000000000000000, 0.5000000000000000000, 0.6250000000000000000, 0.7500000000000000000, 0.8750000000000000000, 1.000000000000000000 ),
 ( 0.0000000000000000000, 0.06250000000000000000, 0.1250000000000000000, 0.2500000000000000000, 0.5000000000000000000, 1.000000000000000000 ),
 .UNSPECIFIED. ) ;
#571 = B_SPLINE_SURFACE_WITH_KNOTS ( 'NONE', 1, 3, ( 
 ( #660, #655, #650, #651, #656, #644, #669, #652, #670, #693 ),
 ( #663, #645, #697, #653, #681, #696, #666, #661, #654, #676 ) ),
 .UNSPECIFIED., .F., .F., .F.,
 ( 2, 2 ),
 ( 4, 2, 2, 2, 4 ),
 ( 0.0000000000000000000, 1.000000000000000000 ),
 ( -0.3701742832774854700, -0.2776307124581141000, -0.1850871416387427400, 0.0000000000000000000, 0.3701742832774854700 ),
 .UNSPECIFIED. ) ;
#572 = B_SPLINE_SURFACE_WITH_KNOTS ( 'NONE', 1, 3, ( 
 ( #222, #235, #228, #229, #231, #232, #189, #192, #194, #287 ),
 ( #255, #274, #257, #237, #276, #239, #290, #253, #285, #275 ) ),
 .UNSPECIFIED., .F., .F., .F.,
 ( 2, 2 ),
 ( 4, 2, 2, 2, 4 ),
 ( 0.0000000000000000000, 1.000000000000000000 ),
 ( -0.3701742832774854700, 0.0000000000000000000, 0.1850871416387427400, 0.2776307124581141000, 0.3701742832774854700 ),
 .UNSPECIFIED. ) ;
#573 = B_SPLINE_SURFACE_WITH_KNOTS ( 'NONE', 3, 1, ( 
 ( #707, #727 ),
 ( #718, #710 ),
 ( #712, #719 ),
 ( #730, #726 ),
 ( #737, #702 ),
 ( #728, #731 ),
 ( #721, #703 ),
 ( #705, #720 ),
 ( #704, #713 ),
 ( #732, #733 ) ),
 .UNSPECIFIED., .F., .F., .F.,
 ( 4, 2, 2, 2, 4 ),
 ( 2, 2 ),
 ( 0.0000000000000000000, 0.2500000000000000000, 0.5000000000000000000, 0.7500000000000000000, 1.000000000000000000 ),
 ( 0.0000000000000000000, 1.000000000000000000 ),
 .UNSPECIFIED. ) ;
#574 = B_SPLINE_SURFACE_WITH_KNOTS ( 'NONE', 1, 3, ( 
 ( #205, #206, #207, #230, #233, #202, #212, #223, #224, #225 ),
 ( #234, #197, #198, #226, #227, #210, #199, #200, #201, #203 ) ),
 .UNSPECIFIED., .F., .F., .F.,
 ( 2, 2 ),
 ( 4, 2, 2, 2, 4 ),
 ( 0.0000000000000000000, 1.000000000000000000 ),
 ( 0.0000000000000000000, 0.2500000000000000000, 0.5000000000000000000, 0.7500000000000000000, 1.000000000000000000 ),
 .UNSPECIFIED. ) ;
#575 = PRODUCT_DEFINITION_CONTEXT ( 'detailed design', #716, 'design' ) ;
#576 = PRODUCT_DEFINITION_SHAPE ( 'NONE', 'NONE',  #521 ) ;
#577 = CARTESIAN_POINT ( 'NONE',  ( 1102.676491129946700, 51.41206882775286100, 163.8061323061258700 ) ) ;
#578 = CARTESIAN_POINT ( 'NONE',  ( 956.6321072925723000, 72.72403076457943900, 288.8479822275893400 ) ) ;
#579 = CARTESIAN_POINT ( 'NONE',  ( 898.1887269921691100, 91.76022370173792800, 330.5616882399386900 ) ) ;
#580 = CARTESIAN_POINT ( 'NONE',  ( 883.0608020820635600, 27.48333811895864200, 372.1190065944130100 ) ) ;
#581 = CARTESIAN_POINT ( 'NONE',  ( 936.8479263805854800, 105.0919989959300100, 288.8985478354824200 ) ) ;
#582 = CARTESIAN_POINT ( 'NONE',  ( 1190.512412123984200, 61.03485093837754500, 80.47626764458607300 ) ) ;
#583 = CARTESIAN_POINT ( 'NONE',  ( 1278.347152262744000, 70.66193949387597700, -2.854313186975784100 ) ) ;
#584 = CARTESIAN_POINT ( 'NONE',  ( 790.1725288570930800, 35.69753390754734600, 455.4901460187397200 ) ) ;
#585 = CARTESIAN_POINT ( 'NONE',  ( 751.2985697678776700, 4.607859233063393800E-014, 497.0500381865224400 ) ) ;
#586 = CARTESIAN_POINT ( 'NONE',  ( 774.0499257308232500, -0.1357245152503220300, 476.2181855647255600 ) ) ;
#587 = CARTESIAN_POINT ( 'NONE',  ( 782.1579365134530200, 51.89246804601990000, 455.5426769236007100 ) ) ;
#588 = CARTESIAN_POINT ( 'NONE',  ( 753.1269142099729400, 41.98722170054252000, 486.7860711746210400 ) ) ;
#589 = CARTESIAN_POINT ( 'NONE',  ( 1167.011021552654300, 259.1332048223416100, -2.705695932741475600 ) ) ;
#590 = CARTESIAN_POINT ( 'NONE',  ( 1207.417727181704300, 198.5084789316232200, -2.754640228297148900 ) ) ;
#591 = CARTESIAN_POINT ( 'NONE',  ( 785.4264382248355800, -0.1842837167477681700, 465.8031705415204400 ) ) ;
#592 = CARTESIAN_POINT ( 'NONE',  ( 751.2473837358808200, 13.43312602981901100, 497.0969118421971900 ) ) ;
#593 = CARTESIAN_POINT ( 'NONE',  ( 839.1310102217386200, 22.73444129486778600, 413.7790000335562000 ) ) ;
#594 = CARTESIAN_POINT ( 'NONE',  ( 779.7626632544117900, 33.40708925478782000, 465.9046044386699400 ) ) ;
#595 = CARTESIAN_POINT ( 'NONE',  ( 796.8029507188480200, -0.2328429182452143000, 455.3881555183152700 ) ) ;
#596 = CARTESIAN_POINT ( 'NONE',  ( 748.5258910535798100, 26.56925378708336200, 497.1484858873636800 ) ) ;
#597 = CARTESIAN_POINT ( 'NONE',  ( 808.1797058783296300, -0.2714874354957120300, 444.9734054858024000 ) ) ;
#598 = CARTESIAN_POINT ( 'NONE',  ( 819.5564132267277300, -0.3045905714412440200, 434.5586032435863900 ) ) ;
#599 = CARTESIAN_POINT ( 'NONE',  ( 762.6735697678776700, -0.07762444141717897400, 486.6333715198557600 ) ) ;
#600 = CARTESIAN_POINT ( 'NONE',  ( 865.0630614883941700, -0.4153724890207509700, 392.8991964786597500 ) ) ;
#601 = CARTESIAN_POINT ( 'NONE',  ( 791.8313809443951600, 55.20412903975525900, 445.1280856774990900 ) ) ;
#602 = CARTESIAN_POINT ( 'NONE',  ( 842.3098279235238100, -0.3707968433323080000, 413.7289987591544200 ) ) ;
#603 = CARTESIAN_POINT ( 'NONE',  ( 801.5032214415421100, 58.51991073821419300, 434.7133280202300500 ) ) ;
#604 = CARTESIAN_POINT ( 'NONE',  ( 1130.118444893673100, 171.8046277629069000, 80.57644938609516300 ) ) ;
#605 = CARTESIAN_POINT ( 'NONE',  ( 831.8003629040695200, 44.90750335322258000, 413.8317701444107100 ) ) ;
#606 = CARTESIAN_POINT ( 'NONE',  ( 795.1936930286613000, 18.03895901611176500, 455.4374206313162900 ) ) ;
#607 = CARTESIAN_POINT ( 'NONE',  ( 887.8158444398609400, -0.4516350248318554700, 372.0689021283280900 ) ) ;
#608 = CARTESIAN_POINT ( 'NONE',  ( 970.9122699706894100, 37.02756691785546600, 288.7960430411695300 ) ) ;
#609 = CARTESIAN_POINT ( 'NONE',  ( 933.3214103427944800, -0.5241600964540644700, 330.4083134276648400 ) ) ;
#610 = CARTESIAN_POINT ( 'NONE',  ( 1081.438025970049900, 100.6225808087831300, 163.8573792642215500 ) ) ;
#611 = CARTESIAN_POINT ( 'NONE',  ( 762.8056735051067100, 45.28417739193036300, 476.3716944482272300 ) ) ;
#612 = CARTESIAN_POINT ( 'NONE',  ( 978.8254038587554100, -0.5632820566169968200, 288.7460076804272300 ) ) ;
#613 = CARTESIAN_POINT ( 'NONE',  ( 806.1785462952010400, 19.20893768052590600, 445.0229051621078600 ) ) ;
#614 = CARTESIAN_POINT ( 'NONE',  ( 915.0278342441780500, 63.43094606646391800, 330.5107128915854000 ) ) ;
#615 = CARTESIAN_POINT ( 'NONE',  ( 1024.196781651052300, 189.5855992197322200, 163.9565609632109300 ) ) ;
#616 = CARTESIAN_POINT ( 'NONE',  ( 810.9870651713778200, 40.30017067382768700, 434.6610358636430100 ) ) ;
#617 = CARTESIAN_POINT ( 'NONE',  ( 743.4433463251244800, 38.70550136139269900, 497.2008729012475800 ) ) ;
#618 = CARTESIAN_POINT ( 'NONE',  ( 859.5191255438221600, 78.45282804572156000, 372.2229976731208000 ) ) ;
#619 = CARTESIAN_POINT ( 'NONE',  ( 998.2340801850648400, 82.02354744598065400, 247.1844479064667400 ) ) ;
#620 = CARTESIAN_POINT ( 'NONE',  ( 873.4151648094923500, 54.16576378554518800, 372.1715059835636300 ) ) ;
#621 = CARTESIAN_POINT ( 'NONE',  ( 817.1627009373802400, 20.38410555197320000, 434.6082701192573300 ) ) ;
#622 = CARTESIAN_POINT ( 'NONE',  ( 784.2078834026841600, 16.87834184572145400, 465.8520303109439200 ) ) ;
#623 = CARTESIAN_POINT ( 'NONE',  ( 769.3527976517305000, 31.11664460202828800, 476.3190628586001500 ) ) ;
#624 = CARTESIAN_POINT ( 'NONE',  ( 1052.817403810551200, 145.1040900142576800, 163.9069701137162600 ) ) ;
#625 = CARTESIAN_POINT ( 'NONE',  ( 861.0965981118911300, 25.10503640548309400, 392.9492691740306300 ) ) ;
#626 = CARTESIAN_POINT ( 'NONE',  ( 926.9892100224086600, 32.23994154590973700, 330.4584814351777600 ) ) ;
#627 = CARTESIAN_POINT ( 'NONE',  ( 772.4818050092799200, 48.58832271897513500, 465.9571856859140000 ) ) ;
#628 = CARTESIAN_POINT ( 'NONE',  ( 975.5044188572406900, 118.4293626687058900, 247.2346885948937000 ) ) ;
#629 = CARTESIAN_POINT ( 'NONE',  ( 840.1843248196486200, 71.79913021771336900, 393.0536523897118300 ) ) ;
#630 = CARTESIAN_POINT ( 'NONE',  ( 820.8469024358357700, 65.15147413513206200, 413.8838127056920400 ) ) ;
#631 = CARTESIAN_POINT ( 'NONE',  ( 758.9409718059733900, 28.83436808210725400, 486.7334401065147600 ) ) ;
#632 = CARTESIAN_POINT ( 'NONE',  ( 800.5804163050320300, 37.99650433413023600, 445.0756687232591800 ) ) ;
#633 = CARTESIAN_POINT ( 'NONE',  ( 852.6088300921493300, 49.53317264508582700, 393.0019025295528100 ) ) ;
#634 = CARTESIAN_POINT ( 'NONE',  ( 1164.631999747307400, 119.2512542905854900, 80.52722123732198200 ) ) ;
#635 = CARTESIAN_POINT ( 'NONE',  ( 1247.824432810754400, 137.8837530409048200, -2.803584523852822300 ) ) ;
#636 = CARTESIAN_POINT ( 'NONE',  ( 1095.604890040039000, 224.3580012352283000, 80.62567753486834500 ) ) ;
#637 = CARTESIAN_POINT ( 'NONE',  ( 762.2352734508836000, 14.56609446754136200, 486.6812663828191600 ) ) ;
#638 = CARTESIAN_POINT ( 'NONE',  ( 1014.833677023775200, 41.82240088782126000, 247.1327394628216300 ) ) ;
#639 = CARTESIAN_POINT ( 'NONE',  ( 952.7747575294165500, 154.8351778914311300, 247.2849292833206500 ) ) ;
#640 = CARTESIAN_POINT ( 'NONE',  ( 773.2220737767071300, 15.71772467533114100, 476.2666399905714900 ) ) ;
#641 = CARTESIAN_POINT ( 'NONE',  ( 676.4770267520568700, 98.22081135488406300, 497.5006788521766900 ) ) ;
#642 = CARTESIAN_POINT ( 'NONE',  ( 546.0000000000000000, 8.326672684688674100E-014, 500.0000000000000000 ) ) ;
#643 = CARTESIAN_POINT ( 'NONE',  ( 548.7394158426819800, 27.29983563238244700, 500.0000000000000000 ) ) ;
#644 = CARTESIAN_POINT ( 'NONE',  ( 936.0000000000000000, 1.139857884006426900E-013, 333.3333333333333100 ) ) ;
#645 = CARTESIAN_POINT ( 'NONE',  ( 774.0485590612215700, -0.1552488097708262200, 476.2167146578192400 ) ) ;
#646 = CARTESIAN_POINT ( 'NONE',  ( 566.7092790636631900, 63.78748955046527400, 500.0000000000000000 ) ) ;
#647 = CARTESIAN_POINT ( 'NONE',  ( 586.2125104495348800, 83.29072093633669700, 500.0000000000000000 ) ) ;
#648 = CARTESIAN_POINT ( 'NONE',  ( 751.2605841573181400, 27.29983563238240400, 500.0000000000000000 ) ) ;
#649 = CARTESIAN_POINT ( 'NONE',  ( 561.6391984033309700, 50.84174893570205000, 497.2532599151315400 ) ) ;
#650 = CARTESIAN_POINT ( 'NONE',  ( 799.5000000000000000, 6.305539134813613300E-014, 458.3333333333333100 ) ) ;
#651 = CARTESIAN_POINT ( 'NONE',  ( 845.0000000000001100, 8.003219036563831500E-014, 416.6666666666666900 ) ) ;
#652 = CARTESIAN_POINT ( 'NONE',  ( 1118.000000000000000, 1.818929844706514400E-013, 166.6666666666666900 ) ) ;
#653 = CARTESIAN_POINT ( 'NONE',  ( 842.3098279235237000, -0.3707968433323080600, 413.7289987591544200 ) ) ;
#654 = CARTESIAN_POINT ( 'NONE',  ( 1206.338286729634500, -0.6837478037416095900, 80.42674296315097100 ) ) ;
#655 = CARTESIAN_POINT ( 'NONE',  ( 776.7500000000000000, 5.456699183938506700E-014, 479.1666666666666300 ) ) ;
#656 = CARTESIAN_POINT ( 'NONE',  ( 867.7500000000000000, 8.852058987438941800E-014, 395.8333333333333100 ) ) ;
#657 = CARTESIAN_POINT ( 'NONE',  ( 663.7908671679999800, 103.9999999999999700, 500.0000000000000000 ) ) ;
#658 = CARTESIAN_POINT ( 'NONE',  ( 677.2998356323823800, 101.2605841573180600, 500.0000000000000000 ) ) ;
#659 = CARTESIAN_POINT ( 'NONE',  ( 702.2981468236150700, 90.90594462548642700, 500.0000000000000000 ) ) ;
#660 = CARTESIAN_POINT ( 'NONE',  ( 754.0000000000000000, 4.607859233063395100E-014, 500.0000000000000000 ) ) ;
#661 = CARTESIAN_POINT ( 'NONE',  ( 1115.334927667907600, -0.6571016110505927300, 163.7564076800217100 ) ) ;
#662 = CARTESIAN_POINT ( 'NONE',  ( 740.9059446254864300, 52.29814682361501400, 500.0000000000000000 ) ) ;
#663 = CARTESIAN_POINT ( 'NONE',  ( 751.2985697678776700, 4.607859233063395100E-014, 497.0500381865224400 ) ) ;
#664 = CARTESIAN_POINT ( 'NONE',  ( 663.3756205427398500, 100.8643254366314700, 497.5165457458121500 ) ) ;
#665 = CARTESIAN_POINT ( 'NONE',  ( 700.7483161040412400, 88.21765872722001200, 497.4436387161114800 ) ) ;
#666 = CARTESIAN_POINT ( 'NONE',  ( 978.8254038587554100, -0.5632820566169968200, 288.7460076804272300 ) ) ;
#667 = CARTESIAN_POINT ( 'NONE',  ( 1206.338286989164800, -0.6837478038041391300, 80.42674272550112800 ) ) ;
#668 = CARTESIAN_POINT ( 'NONE',  ( 636.2091328320001400, 103.9999999999999700, 500.0000000000000000 ) ) ;
#669 = CARTESIAN_POINT ( 'NONE',  ( 981.5000000000001100, 1.309625874181449000E-013, 291.6666666666666900 ) ) ;
#670 = CARTESIAN_POINT ( 'NONE',  ( 1209.000000000000000, 2.158465825056557600E-013, 83.33333333333355600 ) ) ;
#671 = CARTESIAN_POINT ( 'NONE',  ( 730.9182249701979100, 61.97687831276483900, 497.3065066769921100 ) ) ;
#672 = CARTESIAN_POINT ( 'NONE',  ( 588.0830053792412900, 80.85834127819168800, 497.4025523371769300 ) ) ;
#673 = CARTESIAN_POINT ( 'NONE',  ( 751.2473837984746300, 13.43310960287323900, 497.0969117848768500 ) ) ;
#674 = CARTESIAN_POINT ( 'NONE',  ( 751.2985697678776700, 4.607859233063393800E-014, 497.0500381865224400 ) ) ;
#675 = CARTESIAN_POINT ( 'NONE',  ( 1297.340940946719900, -0.7056733641395488400, -2.903692486182217100 ) ) ;
#676 = CARTESIAN_POINT ( 'NONE',  ( 1297.340940946719900, -0.7056733641395488400, -2.903692486182189600 ) ) ;
#677 = CARTESIAN_POINT ( 'NONE',  ( 754.0000000000000000, 4.607859233063393800E-014, 500.0000000000000000 ) ) ;
#678 = CARTESIAN_POINT ( 'NONE',  ( 551.4741089464201900, 26.56925378708341500, 497.1484858873636800 ) ) ;
#679 = CARTESIAN_POINT ( 'NONE',  ( 569.0817750298022000, 61.97687831276485300, 497.3065066769921100 ) ) ;
#680 = CARTESIAN_POINT ( 'NONE',  ( 546.0000000000001100, 13.79086716800008400, 500.0000000000000000 ) ) ;
#681 = CARTESIAN_POINT ( 'NONE',  ( 865.0630614883941700, -0.4153724890207509700, 392.8991964786597500 ) ) ;
#682 = CARTESIAN_POINT ( 'NONE',  ( 548.7526162015253700, 13.43310960287323200, 497.0969117848768500 ) ) ;
#683 = CARTESIAN_POINT ( 'NONE',  ( 636.6243794572602600, 100.8643254366314700, 497.5165457458121500 ) ) ;
#684 = CARTESIAN_POINT ( 'NONE',  ( 1115.334927667907600, -0.6571016110505927300, 163.7564076800216500 ) ) ;
#685 = CARTESIAN_POINT ( 'NONE',  ( 733.2907209363367000, 63.78748955046524600, 500.0000000000000000 ) ) ;
#686 = CARTESIAN_POINT ( 'NONE',  ( 622.7001643676176200, 101.2605841573180900, 500.0000000000000000 ) ) ;
#687 = CARTESIAN_POINT ( 'NONE',  ( 711.9169946207587100, 80.85834127819167300, 497.4025523371769300 ) ) ;
#688 = CARTESIAN_POINT ( 'NONE',  ( 738.3608015966690300, 50.84174893570203600, 497.2532599151315400 ) ) ;
#689 = CARTESIAN_POINT ( 'NONE',  ( 748.5258910535798100, 26.56925378708335800, 497.1484858873636800 ) ) ;
#690 = CARTESIAN_POINT ( 'NONE',  ( 597.7018531763850400, 90.90594462548645500, 500.0000000000000000 ) ) ;
#691 = CARTESIAN_POINT ( 'NONE',  ( 754.0000000000000000, 13.79086716800005300, 500.0000000000000000 ) ) ;
#692 = CARTESIAN_POINT ( 'NONE',  ( 713.7874895504653500, 83.29072093633666900, 500.0000000000000000 ) ) ;
#693 = CARTESIAN_POINT ( 'NONE',  ( 1300.000000000000200, 2.498001805406602200E-013, 2.775557561562891400E-014 ) ) ;
#694 = CARTESIAN_POINT ( 'NONE',  ( 559.0940553745135700, 52.29814682361504200, 500.0000000000000000 ) ) ;
#695 = CARTESIAN_POINT ( 'NONE',  ( 548.7014302321223300, 7.239289996354215900E-014, 497.0500381865224400 ) ) ;
#696 = CARTESIAN_POINT ( 'NONE',  ( 933.3214103427944800, -0.5241600964540644700, 330.4083134276648400 ) ) ;
#697 = CARTESIAN_POINT ( 'NONE',  ( 796.8029985299314100, -0.2383842995501799800, 455.3882077280184100 ) ) ;
#698 = CARTESIAN_POINT ( 'NONE',  ( 599.2516838959588800, 88.21765872722004100, 497.4436387161114800 ) ) ;
#699 = CARTESIAN_POINT ( 'NONE',  ( 1024.328578461806000, -0.5945552414281954900, 247.0828076802920600 ) ) ;
#700 = CARTESIAN_POINT ( 'NONE',  ( 623.5229732479431300, 98.22081135488409100, 497.5006788521766900 ) ) ;
#701 = PRODUCT_CONTEXT ( 'NONE', #724, 'mechanical' ) ;
#702 = CARTESIAN_POINT ( 'NONE',  ( 501.6898992460904200, 500.0000000000002300, 0.0000000000000000000 ) ) ;
#703 = CARTESIAN_POINT ( 'NONE',  ( 942.4763429873493100, 450.9658970452046000, 0.0000000000000000000 ) ) ;
#704 = CARTESIAN_POINT ( 'NONE',  ( 754.0000000000000000, 27.58173433600003600, 500.0000000000000000 ) ) ;
#705 = CARTESIAN_POINT ( 'NONE',  ( 743.0423366292724300, 54.03587385752953100, 500.0000000000000000 ) ) ;
#706 =( LENGTH_UNIT ( ) NAMED_UNIT ( * ) SI_UNIT ( .MILLI., .METRE. ) );
#707 = CARTESIAN_POINT ( 'NONE',  ( 546.0000000000000000, 8.326672684688674100E-014, 500.0000000000000000 ) ) ;
#708 = SURFACE_STYLE_USAGE ( .BOTH. , #729 ) ;
#709 = FILL_AREA_STYLE ('',( #734 ) ) ;
#710 = CARTESIAN_POINT ( 'NONE',  ( 38.04236785137449300, 143.3480527732955600, 0.0000000000000000000 ) ) ;
#711 =( NAMED_UNIT ( * ) SI_UNIT ( $, .STERADIAN. ) SOLID_ANGLE_UNIT ( ) );
#712 = CARTESIAN_POINT ( 'NONE',  ( 556.9576633707275700, 54.03587385752955900, 500.0000000000000000 ) ) ;
#713 = CARTESIAN_POINT ( 'NONE',  ( 1261.957632148625900, 143.3480527732959000, 0.0000000000000000000 ) ) ;
#714 =( NAMED_UNIT ( * ) PLANE_ANGLE_UNIT ( ) SI_UNIT ( $, .RADIAN. ) );
#715 =( LENGTH_UNIT ( ) NAMED_UNIT ( * ) SI_UNIT ( .MILLI., .METRE. ) );
#716 = APPLICATION_CONTEXT ( 'automotive_design' ) ;
#717 = CARTESIAN_POINT ( 'NONE',  ( 0.0000000000000000000, 0.0000000000000000000, 0.0000000000000000000 ) ) ;
#718 = CARTESIAN_POINT ( 'NONE',  ( 546.0000000000001100, 27.58173433600007100, 500.0000000000000000 ) ) ;
#719 = CARTESIAN_POINT ( 'NONE',  ( 122.4153696445128200, 270.1133683004829300, 0.0000000000000000000 ) ) ;
#720 = CARTESIAN_POINT ( 'NONE',  ( 1177.584630355487400, 270.1133683004830500, 0.0000000000000000000 ) ) ;
#721 = CARTESIAN_POINT ( 'NONE',  ( 704.0358738575295100, 93.04233662927238400, 500.0000000000000000 ) ) ;
#722 = APPLICATION_PROTOCOL_DEFINITION ( 'draft international standard', 'automotive_design', 1998, #724 ) ;
#723 = DIRECTION ( 'NONE',  ( 1.000000000000000000, 0.0000000000000000000, 0.0000000000000000000 ) ) ;
#724 = APPLICATION_CONTEXT ( 'automotive_design' ) ;
#725 = DIRECTION ( 'NONE',  ( 0.0000000000000000000, 0.0000000000000000000, 1.000000000000000000 ) ) ;
#726 = CARTESIAN_POINT ( 'NONE',  ( 357.5236570126507400, 450.9658970452046000, 0.0000000000000000000 ) ) ;
#727 = CARTESIAN_POINT ( 'NONE',  ( -1.110223024625156500E-013, 2.775557561562891400E-014, 0.0000000000000000000 ) ) ;
#728 = CARTESIAN_POINT ( 'NONE',  ( 677.5817343359999500, 103.9999999999999700, 500.0000000000000000 ) ) ;
#729 = SURFACE_SIDE_STYLE ('',( #489 ) ) ;
#730 = CARTESIAN_POINT ( 'NONE',  ( 595.9641261424704900, 93.04233662927241300, 500.0000000000000000 ) ) ;
#731 = CARTESIAN_POINT ( 'NONE',  ( 798.3101007539096400, 500.0000000000002300, 0.0000000000000000000 ) ) ;
#732 = CARTESIAN_POINT ( 'NONE',  ( 754.0000000000000000, 4.607859233063393800E-014, 500.0000000000000000 ) ) ;
#733 = CARTESIAN_POINT ( 'NONE',  ( 1300.000000000000200, 2.498001805406602200E-013, 0.0000000000000000000 ) ) ;
#734 = FILL_AREA_STYLE_COLOUR ( '', #503 ) ;
#735 =( NAMED_UNIT ( * ) PLANE_ANGLE_UNIT ( ) SI_UNIT ( $, .RADIAN. ) );
#736 =( NAMED_UNIT ( * ) SI_UNIT ( $, .STERADIAN. ) SOLID_ANGLE_UNIT ( ) );
#737 = CARTESIAN_POINT ( 'NONE',  ( 622.4182656640000500, 103.9999999999999700, 500.0000000000000000 ) ) ;
#738 = APPLICATION_PROTOCOL_DEFINITION ( 'draft international standard', 'automotive_design', 1998, #716 ) ;
ENDSEC;
END-ISO-10303-21;
